<svg version="1.1" xmlns="http://www.w3.org/2000/svg" viewBox="0 0 684.6666870117188 205.33334350585938" width="684.6666870117188" height="205.33334350585938" filter="invert(93%) hue-rotate(180deg)">
  <!-- svg-source:excalidraw -->
  
  <defs>
    <style class="style-fonts">
      @font-face {
        font-family: "Virgil";
        src: url("https://excalidraw.com/Virgil.woff2");
      }
      @font-face {
        font-family: "Cascadia";
        src: url("https://excalidraw.com/Cascadia.woff2");
      }
    </style>
  </defs>
  <rect x="0" y="0" width="684.6666870117188" height="205.33334350585938" fill="#ffffff"/><g transform="translate(26.666656494140625 32) rotate(0 -5.3333282470703125 17.666664123535156)" stroke="none"><path fill="#000000" d="M 0.31,0.93 Q 0.31,0.93 -0.78,1.49 -1.87,2.04 -3.33,2.46 -4.80,2.87 -6.49,4.26 -8.17,5.65 -9.62,7.67 -11.06,9.70 -12.23,12.20 -13.40,14.71 -13.68,18.45 -13.95,22.20 -13.35,25.20 -12.75,28.20 -11.53,29.81 -10.31,31.43 -8.80,31.84 -7.30,32.25 -5.59,31.41 -3.88,30.56 -1.90,27.91 0.06,25.26 1.30,22.31 2.54,19.35 2.86,16.51 3.17,13.66 2.94,11.60 2.70,9.54 1.72,7.93 0.73,6.32 -0.01,5.45 -0.76,4.59 -0.82,2.69 -0.89,0.79 -0.84,0.69 -0.80,0.60 -0.73,0.52 -0.66,0.44 -0.56,0.39 -0.47,0.34 -0.36,0.32 -0.26,0.30 -0.15,0.32 -0.05,0.34 0.04,0.38 0.13,0.43 0.20,0.51 0.28,0.59 0.32,0.68 0.37,0.78 0.38,0.88 0.39,0.99 0.37,1.09 0.35,1.20 0.29,1.29 0.24,1.38 0.16,1.45 0.08,1.52 -0.01,1.56 -0.11,1.60 -0.21,1.61 -0.32,1.61 -0.42,1.59 -0.52,1.56 -0.61,1.50 -0.70,1.44 -0.77,1.36 -0.83,1.27 -0.87,1.17 -0.90,1.07 -0.90,0.97 -0.90,0.86 -0.87,0.76 -0.84,0.66 -0.77,0.57 -0.71,0.49 -0.62,0.43 -0.53,0.37 -0.43,0.34 -0.33,0.31 -0.22,0.31 -0.12,0.32 -0.02,0.36 0.07,0.39 0.15,0.46 0.23,0.53 0.29,0.62 0.34,0.71 0.37,0.81 0.39,0.92 0.38,1.02 0.37,1.13 0.37,1.13 0.37,1.13 1.13,1.75 1.88,2.38 2.79,3.53 3.71,4.67 4.82,6.90 5.94,9.12 6.15,11.58 6.36,14.04 5.92,17.30 5.47,20.57 4.02,23.89 2.57,27.20 0.02,30.28 -2.52,33.36 -5.14,34.28 -7.76,35.19 -10.15,34.33 -12.53,33.47 -14.14,31.18 -15.75,28.90 -16.39,25.43 -17.03,21.97 -16.62,17.71 -16.21,13.46 -14.87,10.67 -13.54,7.89 -11.78,5.58 -10.03,3.27 -7.81,1.67 -5.58,0.07 -4.15,-0.21 -2.72,-0.51 -1.51,-0.72 -0.31,-0.93 -0.19,-0.96 -0.07,-0.98 0.03,-0.97 0.15,-0.97 0.27,-0.94 0.38,-0.90 0.49,-0.84 0.59,-0.78 0.67,-0.70 0.76,-0.62 0.82,-0.52 0.89,-0.42 0.93,-0.31 0.96,-0.19 0.97,-0.07 0.98,0.04 0.96,0.15 0.94,0.27 0.90,0.38 0.85,0.49 0.78,0.58 0.71,0.68 0.61,0.75 0.52,0.83 0.41,0.88 0.31,0.93 0.31,0.93 L 0.31,0.93 Z"/></g><g transform="translate(47.33331298828125 36) rotate(0 9.666671752929688 14.666664123535156)" stroke="none"><path fill="#000000" d="M 0.85,0 Q 0.85,0 1.18,1.53 1.50,3.06 1.70,7.51 1.90,11.97 1.99,16.58 2.07,21.18 1.92,25.10 1.76,29.01 1.70,31.98 1.64,34.95 1.41,37.07 1.19,39.20 0.73,40.04 0.26,40.89 0.22,41.07 0.18,41.26 0.09,41.42 0.01,41.59 -0.11,41.74 -0.23,41.88 -0.39,41.99 -0.54,42.10 -0.72,42.17 -0.89,42.24 -1.08,42.26 -1.27,42.29 -1.46,42.27 -1.65,42.25 -1.83,42.18 -2.00,42.12 -2.16,42.01 -2.32,41.91 -2.45,41.77 -2.57,41.63 -2.66,41.46 -2.75,41.29 -2.80,41.11 -2.85,40.93 -2.85,40.74 -2.86,40.55 -3.35,37.97 -3.84,35.40 -3.96,32.30 -4.08,29.20 -3.95,23.84 -3.81,18.47 -3.36,13.86 -2.91,9.24 -1.74,5.05 -0.56,0.86 1.33,-2.56 3.23,-5.99 5.58,-8.35 7.93,-10.71 11.20,-11.21 14.46,-11.71 16.85,-10.58 19.24,-9.44 20.54,-7.40 21.85,-5.35 22.20,-3.11 22.54,-0.86 21.49,1.41 20.45,3.69 17.23,4.96 14.00,6.24 11.02,5.88 8.03,5.51 4.88,3.02 1.73,0.54 1.62,0.53 1.52,0.52 1.42,0.47 1.32,0.43 1.24,0.36 1.17,0.28 1.11,0.19 1.06,0.10 1.05,-0.00 1.03,-0.10 1.04,-0.21 1.06,-0.31 1.11,-0.41 1.15,-0.50 1.23,-0.57 1.31,-0.65 1.40,-0.69 1.50,-0.74 1.60,-0.75 1.71,-0.77 1.81,-0.74 1.92,-0.72 2.01,-0.67 2.10,-0.62 2.17,-0.54 2.24,-0.46 2.28,-0.36 2.32,-0.26 2.33,-0.15 2.34,-0.05 2.31,0.05 2.28,0.15 2.22,0.24 2.17,0.33 2.08,0.39 2.00,0.46 1.90,0.49 1.80,0.53 1.69,0.53 1.59,0.53 1.48,0.50 1.38,0.46 1.30,0.40 1.21,0.34 1.15,0.25 1.09,0.16 1.06,0.06 1.03,-0.03 1.04,-0.14 1.04,-0.24 1.08,-0.34 1.12,-0.44 1.18,-0.52 1.25,-0.60 1.34,-0.66 1.43,-0.72 1.54,-0.74 1.64,-0.76 1.64,-0.76 1.64,-0.76 5.25,0.73 8.85,2.23 10.97,2.60 13.09,2.96 15.58,2.35 18.07,1.74 18.73,0.49 19.39,-0.75 19.25,-2.31 19.11,-3.87 18.36,-5.36 17.61,-6.86 16.07,-7.73 14.53,-8.61 12.16,-8.43 9.80,-8.26 7.91,-6.32 6.02,-4.39 4.26,-1.31 2.51,1.76 1.39,5.66 0.27,9.56 -0.16,14.06 -0.60,18.56 -0.75,23.82 -0.89,29.08 -0.78,32.04 -0.66,35.00 -0.42,37.01 -0.19,39.02 0.03,39.95 0.26,40.89 0.22,41.07 0.18,41.25 0.09,41.42 0.01,41.59 -0.11,41.74 -0.23,41.88 -0.39,41.99 -0.54,42.10 -0.72,42.17 -0.89,42.24 -1.08,42.26 -1.27,42.29 -1.46,42.27 -1.65,42.25 -1.82,42.18 -2.00,42.12 -2.16,42.01 -2.32,41.91 -2.45,41.77 -2.57,41.63 -2.66,41.46 -2.75,41.29 -2.80,41.11 -2.85,40.93 -2.85,40.74 -2.86,40.55 -2.36,39.66 -1.87,38.77 -1.66,36.83 -1.44,34.88 -1.37,31.88 -1.30,28.88 -1.14,25.06 -0.98,21.24 -1.06,16.67 -1.14,12.10 -1.32,7.58 -1.50,3.06 -1.18,1.53 -0.85,0 -0.84,-0.10 -0.82,-0.20 -0.79,-0.30 -0.75,-0.39 -0.69,-0.48 -0.63,-0.56 -0.56,-0.63 -0.48,-0.70 -0.39,-0.75 -0.30,-0.79 -0.20,-0.82 -0.10,-0.84 0.00,-0.84 0.10,-0.84 0.20,-0.82 0.30,-0.79 0.39,-0.75 0.48,-0.70 0.56,-0.63 0.63,-0.56 0.69,-0.48 0.75,-0.39 0.79,-0.30 0.82,-0.20 0.84,-0.10 0.85,0.00 0.85,0.00 L 0.85,0 Z"/></g><g transform="translate(103.33331298828125 26.666656494140625) rotate(0 -10.666656494140625 24.00000762939453)" stroke="none"><path fill="#000000" d="M -0.33,1.01 Q -0.33,1.01 -1.49,0.86 -2.65,0.71 -3.91,1.16 -5.17,1.60 -6.62,2.47 -8.07,3.34 -9.56,4.78 -11.06,6.21 -12.56,9.33 -14.06,12.45 -14.91,15.27 -15.76,18.10 -15.92,20.14 -16.08,22.17 -15.78,23.51 -15.48,24.84 -15.52,25.04 -15.56,25.23 -15.65,25.41 -15.73,25.59 -15.86,25.74 -15.98,25.89 -16.14,26.01 -16.30,26.13 -16.48,26.20 -16.66,26.28 -16.86,26.31 -17.05,26.34 -17.25,26.32 -17.44,26.31 -17.63,26.24 -17.82,26.18 -17.98,26.07 -18.15,25.97 -18.29,25.82 -18.42,25.68 -18.52,25.51 -18.62,25.34 -18.67,25.15 -18.72,24.96 -18.73,24.76 -18.74,24.56 -17.40,23.52 -16.06,22.48 -15.19,21.19 -14.33,19.90 -13.09,18.13 -11.86,16.36 -10.30,14.85 -8.73,13.34 -6.54,13.31 -4.34,13.29 -2.15,15.98 0.02,18.68 1.62,21.76 3.21,24.84 4.11,27.78 5.01,30.71 5.58,33.55 6.15,36.39 5.39,39.48 4.63,42.58 2.59,44.66 0.55,46.74 -1.99,48.01 -4.54,49.28 -7.59,49.45 -10.63,49.62 -13.80,48.66 -16.96,47.70 -19.51,46.01 -22.06,44.33 -24.08,41.85 -26.11,39.38 -26.17,39.29 -26.24,39.21 -26.28,39.11 -26.31,39.01 -26.31,38.91 -26.32,38.80 -26.29,38.70 -26.26,38.60 -26.19,38.51 -26.13,38.42 -26.04,38.36 -25.96,38.30 -25.86,38.27 -25.76,38.24 -25.65,38.24 -25.54,38.24 -25.44,38.28 -25.34,38.32 -25.26,38.38 -25.18,38.45 -25.12,38.54 -25.06,38.63 -25.04,38.73 -25.01,38.84 -25.02,38.94 -25.03,39.05 -25.07,39.14 -25.11,39.24 -25.18,39.32 -25.26,39.40 -25.35,39.45 -25.44,39.50 -25.55,39.52 -25.65,39.54 -25.75,39.53 -25.86,39.52 -25.96,39.47 -26.05,39.42 -26.13,39.35 -26.20,39.27 -26.25,39.18 -26.29,39.08 -26.31,38.98 -26.32,38.87 -26.30,38.77 -26.28,38.66 -26.23,38.57 -26.18,38.48 -26.10,38.41 -26.02,38.33 -25.92,38.29 -25.82,38.25 -25.72,38.24 -25.61,38.23 -25.51,38.26 -25.41,38.29 -25.32,38.34 -25.23,38.40 -25.23,38.40 -25.23,38.40 -22.74,39.98 -20.25,41.55 -18.05,42.95 -15.86,44.34 -13.27,45.22 -10.68,46.10 -8.31,46.09 -5.94,46.09 -3.85,45.13 -1.77,44.17 -0.13,42.81 1.50,41.46 2.19,39.17 2.88,36.89 2.35,34.28 1.83,31.67 1.04,29.01 0.26,26.35 -1.19,23.47 -2.65,20.60 -4.05,18.31 -5.45,16.02 -6.28,15.98 -7.10,15.94 -8.13,17.10 -9.17,18.26 -10.45,20.07 -11.72,21.88 -13.60,23.36 -15.48,24.84 -15.52,25.04 -15.56,25.23 -15.65,25.41 -15.73,25.59 -15.86,25.74 -15.98,25.89 -16.14,26.01 -16.30,26.12 -16.48,26.20 -16.66,26.28 -16.86,26.31 -17.05,26.34 -17.25,26.32 -17.44,26.31 -17.63,26.24 -17.82,26.18 -17.98,26.07 -18.15,25.97 -18.29,25.82 -18.42,25.68 -18.52,25.51 -18.62,25.34 -18.67,25.15 -18.72,24.96 -18.73,24.76 -18.74,24.56 -19.04,23.25 -19.35,21.94 -19.12,19.55 -18.90,17.16 -17.96,14.07 -17.01,10.99 -15.18,7.43 -13.35,3.86 -11.52,2.20 -9.70,0.53 -7.84,-0.47 -5.98,-1.48 -3.96,-1.87 -1.94,-2.25 -0.80,-1.63 0.33,-1.01 0.45,-0.95 0.57,-0.90 0.67,-0.82 0.77,-0.74 0.84,-0.63 0.92,-0.53 0.97,-0.41 1.02,-0.29 1.04,-0.17 1.06,-0.04 1.05,0.08 1.04,0.21 1.00,0.33 0.96,0.45 0.89,0.56 0.82,0.67 0.73,0.76 0.64,0.85 0.53,0.91 0.41,0.98 0.29,1.02 0.17,1.05 0.04,1.06 -0.08,1.06 -0.21,1.04 -0.33,1.01 -0.33,1.01 L -0.33,1.01 Z"/></g><g transform="translate(136.66665649414062 15.333328247070312) rotate(0 7.333343505859375 15)" stroke="none"><path fill="#000000" d="M -0.69,-0.69 Q -0.69,-0.69 -0.27,-1.43 0.14,-2.17 2.06,-3.31 3.98,-4.44 5.81,-5.11 7.63,-5.79 9.59,-5.97 11.54,-6.14 13.13,-4.56 14.72,-2.98 15.40,-0.17 16.08,2.64 15.96,6.20 15.83,9.76 15.39,13.18 14.95,16.60 13.99,20.60 13.03,24.60 12.23,27.09 11.43,29.58 11.31,30.82 11.20,32.06 10.91,33.49 10.61,34.93 10.61,35.03 10.60,35.14 10.56,35.24 10.52,35.34 10.45,35.42 10.38,35.50 10.29,35.55 10.20,35.61 10.10,35.63 9.99,35.65 9.89,35.64 9.78,35.63 9.69,35.58 9.59,35.54 9.51,35.46 9.44,35.39 9.39,35.30 9.34,35.20 9.32,35.10 9.30,34.99 9.32,34.89 9.34,34.78 9.39,34.69 9.44,34.60 9.52,34.52 9.59,34.45 9.69,34.41 9.79,34.36 9.89,34.35 10.00,34.34 10.10,34.36 10.21,34.39 10.30,34.44 10.39,34.50 10.46,34.58 10.52,34.66 10.56,34.76 10.60,34.86 10.61,34.96 10.61,35.07 10.58,35.17 10.56,35.27 10.50,35.36 10.44,35.45 10.35,35.51 10.27,35.58 10.16,35.61 10.06,35.64 9.96,35.64 9.85,35.64 9.75,35.61 9.65,35.57 9.57,35.51 9.48,35.45 9.42,35.36 9.36,35.27 9.34,35.17 9.31,35.06 9.31,35.06 9.31,35.06 8.60,33.41 7.88,31.75 8.06,30.15 8.23,28.56 9.01,26.18 9.79,23.81 10.75,19.98 11.71,16.16 12.18,12.88 12.64,9.60 12.85,6.42 13.05,3.23 12.71,1.01 12.36,-1.21 11.53,-2.47 10.69,-3.73 9.66,-3.38 8.62,-3.03 7.02,-2.46 5.42,-1.89 3.79,-1.01 2.15,-0.12 1.42,0.28 0.69,0.69 0.60,0.77 0.51,0.84 0.40,0.89 0.29,0.94 0.17,0.96 0.05,0.98 -0.05,0.97 -0.17,0.97 -0.29,0.93 -0.40,0.90 -0.50,0.83 -0.60,0.77 -0.69,0.69 -0.77,0.60 -0.83,0.50 -0.90,0.40 -0.93,0.29 -0.97,0.17 -0.97,0.05 -0.98,-0.05 -0.96,-0.17 -0.94,-0.29 -0.89,-0.40 -0.84,-0.51 -0.77,-0.60 -0.69,-0.69 -0.69,-0.69 L -0.69,-0.69 Z"/></g><g transform="translate(130 51.33332824707031) rotate(0 14.666656494140625 3)" stroke="none"><path fill="#000000" d="M 0.19,-0.99 Q 0.19,-0.99 1.18,-0.96 2.17,-0.92 3.72,-0.68 5.27,-0.45 8.05,0.01 10.83,0.48 13.21,1.07 15.59,1.66 18.48,2.28 21.36,2.90 23.37,3.37 25.38,3.84 27.02,4.53 28.66,5.22 28.76,5.26 28.86,5.29 28.94,5.35 29.03,5.42 29.09,5.51 29.15,5.59 29.18,5.70 29.21,5.80 29.20,5.90 29.19,6.01 29.16,6.11 29.12,6.21 29.05,6.29 28.98,6.37 28.89,6.43 28.80,6.48 28.70,6.50 28.59,6.53 28.49,6.52 28.38,6.51 28.28,6.46 28.19,6.42 28.11,6.34 28.03,6.27 27.98,6.18 27.93,6.08 27.91,5.98 27.90,5.87 27.91,5.77 27.93,5.66 27.98,5.57 28.03,5.48 28.11,5.40 28.18,5.33 28.28,5.28 28.37,5.24 28.48,5.23 28.59,5.22 28.69,5.24 28.79,5.26 28.88,5.31 28.98,5.37 29.05,5.45 29.11,5.53 29.15,5.63 29.19,5.73 29.20,5.83 29.21,5.94 29.18,6.04 29.15,6.14 29.09,6.23 29.03,6.32 28.95,6.39 28.86,6.45 28.76,6.48 28.66,6.52 28.56,6.52 28.45,6.52 28.45,6.52 28.45,6.52 26.57,6.65 24.70,6.79 22.70,6.33 20.71,5.88 17.78,5.22 14.85,4.56 12.58,3.96 10.31,3.36 7.55,2.83 4.78,2.31 3.22,2.00 1.65,1.69 0.72,1.34 -0.19,0.99 -0.31,0.95 -0.43,0.91 -0.53,0.85 -0.63,0.78 -0.72,0.70 -0.80,0.61 -0.87,0.50 -0.93,0.40 -0.96,0.28 -1.00,0.16 -1.00,0.04 -1.01,-0.07 -0.98,-0.19 -0.96,-0.31 -0.91,-0.42 -0.86,-0.53 -0.78,-0.63 -0.70,-0.72 -0.60,-0.80 -0.51,-0.87 -0.39,-0.92 -0.28,-0.97 -0.16,-0.99 -0.04,-1.01 0.07,-1.00 0.19,-0.99 0.19,-0.99 L 0.19,-0.99 Z"/></g><g transform="translate(173.33331298828125 54) rotate(0 -0.666656494140625 3.6666641235351562)" stroke="none"><path fill="#000000" d="M 0.91,0.18 Q 0.91,0.18 0.99,1.19 1.07,2.20 0.82,3.39 0.56,4.58 0.63,5.52 0.70,6.46 0.70,6.63 0.70,6.80 0.66,6.97 0.61,7.13 0.53,7.29 0.45,7.44 0.33,7.57 0.22,7.69 0.07,7.79 -0.06,7.89 -0.22,7.95 -0.38,8.01 -0.55,8.02 -0.73,8.04 -0.90,8.02 -1.07,8.00 -1.23,7.93 -1.39,7.87 -1.53,7.77 -1.67,7.67 -1.78,7.54 -1.90,7.41 -1.98,7.26 -2.05,7.10 -2.09,6.93 -2.13,6.77 -1.54,4.75 -0.95,2.74 -0.92,2.63 -0.89,2.53 -0.84,2.44 -0.78,2.36 -0.69,2.29 -0.61,2.23 -0.51,2.19 -0.41,2.16 -0.30,2.16 -0.19,2.16 -0.09,2.19 0.00,2.23 0.08,2.29 0.17,2.35 0.23,2.44 0.29,2.53 0.32,2.63 0.34,2.74 0.34,2.84 0.33,2.95 0.29,3.05 0.25,3.15 0.19,3.23 0.12,3.31 0.03,3.36 -0.06,3.42 -0.16,3.44 -0.26,3.46 -0.37,3.45 -0.47,3.44 -0.57,3.40 -0.67,3.35 -0.74,3.28 -0.82,3.20 -0.87,3.11 -0.92,3.02 -0.94,2.91 -0.96,2.81 -0.94,2.70 -0.92,2.60 -0.87,2.50 -0.82,2.41 -0.74,2.34 -0.67,2.26 -0.57,2.22 -0.47,2.17 -0.37,2.16 -0.26,2.15 -0.16,2.17 -0.06,2.20 0.03,2.25 0.12,2.31 0.19,2.39 0.25,2.47 0.29,2.57 0.33,2.67 0.34,2.77 0.34,2.88 0.34,2.88 0.34,2.88 0.52,4.67 0.70,6.46 0.70,6.63 0.70,6.80 0.66,6.97 0.61,7.13 0.53,7.29 0.45,7.44 0.33,7.57 0.22,7.69 0.07,7.79 -0.06,7.89 -0.22,7.95 -0.38,8.01 -0.55,8.02 -0.73,8.04 -0.90,8.02 -1.07,8.00 -1.23,7.93 -1.39,7.87 -1.53,7.77 -1.67,7.67 -1.78,7.54 -1.90,7.41 -1.98,7.26 -2.05,7.10 -2.09,6.93 -2.13,6.77 -2.22,6.29 -2.31,5.81 -2.37,4.87 -2.42,3.94 -2.13,2.78 -1.84,1.62 -1.37,0.72 -0.91,-0.18 -0.87,-0.28 -0.84,-0.39 -0.78,-0.49 -0.72,-0.58 -0.64,-0.66 -0.56,-0.74 -0.46,-0.79 -0.36,-0.85 -0.26,-0.88 -0.15,-0.91 -0.04,-0.92 0.07,-0.92 0.18,-0.90 0.29,-0.88 0.39,-0.83 0.49,-0.78 0.58,-0.71 0.66,-0.64 0.73,-0.55 0.80,-0.46 0.84,-0.36 0.89,-0.26 0.91,-0.15 0.93,-0.04 0.92,0.07 0.91,0.18 0.91,0.18 L 0.91,0.18 Z"/></g><g transform="translate(16 143.33334350585938) rotate(0 11.999984741210938 25.333328247070312)" stroke="none"><path fill="#000000" d="M 0.63,-0.63 Q 0.63,-0.63 1.39,-0.12 2.14,0.39 2.73,4.19 3.33,7.99 3.72,14.31 4.11,20.63 4.09,26.22 4.07,31.81 3.88,36.30 3.69,40.79 3.23,44.11 2.77,47.42 2.21,48.80 1.65,50.17 1.61,50.34 1.56,50.52 1.47,50.67 1.39,50.83 1.27,50.96 1.15,51.09 1.00,51.19 0.85,51.29 0.68,51.34 0.51,51.40 0.33,51.42 0.16,51.44 -0.01,51.41 -0.19,51.39 -0.35,51.32 -0.52,51.25 -0.66,51.15 -0.81,51.04 -0.92,50.91 -1.04,50.77 -1.12,50.61 -1.19,50.45 -1.23,50.28 -1.27,50.10 -1.27,49.93 -1.26,49.75 -1.44,47.01 -1.62,44.28 -0.79,41.32 0.03,38.36 1.15,35.57 2.28,32.77 3.91,29.45 5.54,26.12 7.26,23.84 8.98,21.56 10.74,19.95 12.49,18.34 14.39,17.38 16.29,16.42 19.80,17.14 23.32,17.87 23.42,17.89 23.52,17.92 23.61,17.98 23.70,18.04 23.77,18.12 23.83,18.21 23.87,18.31 23.90,18.41 23.90,18.52 23.90,18.62 23.87,18.72 23.84,18.82 23.77,18.91 23.71,18.99 23.62,19.05 23.53,19.11 23.43,19.14 23.33,19.17 23.22,19.17 23.12,19.16 23.02,19.12 22.92,19.09 22.84,19.02 22.76,18.95 22.70,18.86 22.65,18.77 22.62,18.67 22.60,18.56 22.61,18.46 22.62,18.35 22.66,18.25 22.71,18.16 22.78,18.08 22.85,18.00 22.95,17.95 23.04,17.90 23.14,17.88 23.25,17.86 23.35,17.88 23.46,17.90 23.55,17.95 23.65,17.99 23.72,18.07 23.79,18.15 23.84,18.24 23.89,18.34 23.90,18.45 23.91,18.55 23.89,18.65 23.87,18.76 23.81,18.85 23.76,18.94 23.68,19.01 23.60,19.08 23.50,19.12 23.40,19.16 23.29,19.17 23.19,19.17 23.19,19.17 23.19,19.17 20.32,19.26 17.45,19.34 16.02,20.03 14.60,20.73 13.03,22.10 11.47,23.47 9.90,25.49 8.32,27.52 6.71,30.72 5.10,33.92 4.01,36.56 2.92,39.20 2.14,41.81 1.37,44.43 1.24,46.22 1.12,48.01 1.39,49.09 1.65,50.17 1.61,50.34 1.56,50.52 1.47,50.67 1.39,50.83 1.27,50.96 1.15,51.09 1.00,51.19 0.85,51.29 0.68,51.34 0.51,51.40 0.33,51.42 0.16,51.44 -0.01,51.41 -0.19,51.39 -0.35,51.32 -0.52,51.25 -0.66,51.15 -0.81,51.04 -0.92,50.91 -1.04,50.77 -1.11,50.61 -1.19,50.45 -1.23,50.28 -1.27,50.10 -1.27,49.93 -1.26,49.75 -0.65,48.37 -0.04,46.99 0.43,43.83 0.91,40.66 1.13,36.23 1.35,31.79 1.39,26.29 1.43,20.79 1.07,14.55 0.70,8.31 0.43,5.11 0.15,1.90 -0.24,1.27 -0.63,0.63 -0.70,0.55 -0.77,0.46 -0.81,0.36 -0.86,0.26 -0.88,0.16 -0.90,0.05 -0.89,-0.05 -0.88,-0.16 -0.85,-0.26 -0.82,-0.37 -0.76,-0.46 -0.71,-0.55 -0.63,-0.63 -0.55,-0.71 -0.46,-0.76 -0.37,-0.82 -0.26,-0.85 -0.16,-0.88 -0.05,-0.89 0.05,-0.90 0.16,-0.88 0.26,-0.86 0.36,-0.81 0.46,-0.77 0.55,-0.70 0.63,-0.63 0.63,-0.63 L 0.63,-0.63 Z"/></g><g transform="translate(50.666656494140625 170.66665649414062) rotate(0 6.6666717529296875 2)" stroke="none"><path fill="#000000" d="M 0.97,-0.16 Q 0.97,-0.16 1.26,0.96 1.56,2.08 2.03,2.74 2.49,3.41 3.70,3.43 4.90,3.45 6.58,2.34 8.27,1.22 9.29,-0.26 10.31,-1.75 10.93,-3.07 11.56,-4.39 11.47,-5.48 11.39,-6.57 10.70,-6.99 10.02,-7.41 9.10,-7.25 8.18,-7.10 7.01,-6.24 5.85,-5.39 4.64,-3.65 3.43,-1.91 2.37,1.19 1.31,4.29 1.24,6.58 1.16,8.86 1.60,9.80 2.04,10.75 3.48,10.90 4.91,11.04 6.87,10.47 8.83,9.90 11.42,9.50 14.01,9.11 14.11,9.09 14.21,9.07 14.32,9.08 14.43,9.10 14.52,9.15 14.62,9.19 14.69,9.27 14.76,9.34 14.81,9.44 14.86,9.54 14.87,9.64 14.88,9.75 14.86,9.85 14.84,9.95 14.79,10.05 14.74,10.14 14.66,10.21 14.58,10.28 14.48,10.32 14.38,10.36 14.28,10.37 14.17,10.38 14.07,10.35 13.97,10.33 13.88,10.27 13.79,10.21 13.72,10.13 13.66,10.04 13.62,9.94 13.58,9.84 13.58,9.74 13.58,9.63 13.61,9.53 13.64,9.43 13.70,9.34 13.77,9.26 13.85,9.20 13.94,9.13 14.04,9.10 14.14,9.07 14.25,9.08 14.36,9.08 14.46,9.12 14.56,9.16 14.64,9.22 14.72,9.29 14.78,9.38 14.83,9.47 14.86,9.57 14.88,9.68 14.87,9.78 14.86,9.89 14.82,9.98 14.78,10.08 14.71,10.16 14.64,10.24 14.54,10.29 14.45,10.34 14.45,10.34 14.45,10.34 12.05,11.74 9.65,13.15 6.98,13.74 4.31,14.33 2.07,13.61 -0.16,12.89 -1.15,10.90 -2.15,8.90 -1.99,6.06 -1.82,3.22 -0.53,-0.30 0.76,-3.82 2.40,-5.97 4.04,-8.12 5.97,-9.20 7.89,-10.27 9.73,-10.15 11.57,-10.02 12.87,-8.71 14.18,-7.40 14.25,-5.32 14.33,-3.25 13.52,-1.62 12.72,0.00 11.29,1.84 9.86,3.68 7.58,4.99 5.30,6.30 3.45,6.28 1.59,6.27 0.86,5.47 0.12,4.67 -0.33,3.59 -0.79,2.51 -0.88,1.33 -0.97,0.16 -0.97,0.04 -0.98,-0.07 -0.96,-0.19 -0.93,-0.30 -0.88,-0.41 -0.83,-0.52 -0.76,-0.61 -0.68,-0.70 -0.59,-0.78 -0.49,-0.85 -0.38,-0.90 -0.27,-0.94 -0.16,-0.96 -0.04,-0.98 0.07,-0.97 0.19,-0.96 0.30,-0.93 0.41,-0.89 0.52,-0.83 0.62,-0.76 0.70,-0.68 0.78,-0.59 0.84,-0.49 0.90,-0.39 0.94,-0.27 0.97,-0.16 0.97,-0.16 L 0.97,-0.16 Z"/></g><g transform="translate(90.66665649414062 134.66665649414062) rotate(0 -1 26.666671752929688)" stroke="none"><path fill="#000000" d="M 0.92,0.18 Q 0.92,0.18 0.92,1.18 0.92,2.17 0.69,3.72 0.45,5.27 0.17,9.31 -0.10,13.36 -0.22,18.52 -0.33,23.68 -0.38,29.14 -0.43,34.59 -0.44,39.60 -0.46,44.60 -0.32,46.50 -0.18,48.40 -0.19,48.48 -0.20,48.56 -0.22,48.63 -0.25,48.70 -0.30,48.77 -0.34,48.83 -0.40,48.89 -0.46,48.94 -0.53,48.98 -0.60,49.01 -0.68,49.03 -0.76,49.05 -0.84,49.05 -0.91,49.05 -0.99,49.03 -1.07,49.01 -1.14,48.97 -1.21,48.94 -1.27,48.88 -1.33,48.83 -1.37,48.76 -1.42,48.70 -1.44,48.62 -1.47,48.55 -1.48,48.47 -1.49,48.39 -1.41,48.18 -1.32,47.96 -1.24,47.89 -1.16,47.83 -1.06,47.79 -0.96,47.75 -0.85,47.75 -0.75,47.75 -0.64,47.78 -0.54,47.81 -0.46,47.87 -0.37,47.93 -0.31,48.02 -0.25,48.10 -0.21,48.20 -0.18,48.30 -0.18,48.41 -0.19,48.52 -0.22,48.62 -0.26,48.72 -0.33,48.80 -0.39,48.88 -0.48,48.94 -0.57,49.00 -0.67,49.02 -0.78,49.05 -0.88,49.04 -0.99,49.03 -1.09,48.99 -1.18,48.95 -1.26,48.88 -1.34,48.81 -1.39,48.72 -1.45,48.63 -1.47,48.52 -1.49,48.42 -1.47,48.31 -1.46,48.21 -1.41,48.11 -1.37,48.02 -1.29,47.94 -1.22,47.86 -1.12,47.82 -1.03,47.77 -0.92,47.75 -0.82,47.74 -0.71,47.76 -0.61,47.78 -0.52,47.83 -0.42,47.88 -0.35,47.96 -0.28,48.04 -0.24,48.14 -0.20,48.24 -0.19,48.34 -0.18,48.45 -0.20,48.55 -0.23,48.65 -0.20,48.53 -0.18,48.40 -0.19,48.48 -0.20,48.56 -0.22,48.63 -0.25,48.70 -0.30,48.77 -0.34,48.83 -0.40,48.89 -0.46,48.94 -0.53,48.98 -0.60,49.01 -0.68,49.03 -0.76,49.05 -0.84,49.05 -0.91,49.05 -0.99,49.03 -1.07,49.01 -1.14,48.97 -1.21,48.94 -1.27,48.88 -1.33,48.83 -1.37,48.76 -1.41,48.70 -1.44,48.62 -1.47,48.55 -1.48,48.47 -1.49,48.39 -2.48,46.49 -3.46,44.59 -3.43,39.58 -3.40,34.56 -3.33,29.09 -3.27,23.61 -3.13,18.38 -2.98,13.14 -2.65,8.96 -2.31,4.78 -2.00,3.22 -1.69,1.65 -1.31,0.73 -0.92,-0.18 -0.89,-0.29 -0.85,-0.40 -0.79,-0.49 -0.73,-0.59 -0.65,-0.67 -0.57,-0.75 -0.47,-0.81 -0.37,-0.86 -0.26,-0.90 -0.15,-0.93 -0.04,-0.93 0.07,-0.94 0.18,-0.92 0.29,-0.89 0.39,-0.85 0.50,-0.80 0.59,-0.72 0.67,-0.65 0.74,-0.56 0.81,-0.47 0.86,-0.37 0.90,-0.26 0.92,-0.15 0.94,-0.04 0.93,0.07 0.92,0.18 0.92,0.18 L 0.92,0.18 Z"/></g><g transform="translate(89.33331298828125 161.33334350585938) rotate(0 16 -4.333343505859375)" stroke="none"><path fill="#000000" d="M -0.11,-0.88 Q -0.11,-0.88 1.38,-1.34 2.89,-1.79 5.76,-2.46 8.64,-3.13 11.37,-3.99 14.10,-4.84 17.04,-5.61 19.98,-6.37 22.34,-7.07 24.70,-7.77 27.92,-8.68 31.14,-9.60 31.24,-9.63 31.34,-9.67 31.45,-9.67 31.55,-9.68 31.65,-9.65 31.76,-9.62 31.84,-9.55 31.93,-9.49 31.99,-9.41 32.05,-9.32 32.09,-9.22 32.12,-9.12 32.12,-9.01 32.11,-8.91 32.08,-8.81 32.04,-8.71 31.98,-8.62 31.91,-8.54 31.82,-8.48 31.73,-8.42 31.63,-8.40 31.53,-8.37 31.42,-8.38 31.31,-8.39 31.22,-8.43 31.12,-8.47 31.04,-8.54 30.96,-8.61 30.91,-8.70 30.85,-8.80 30.83,-8.90 30.81,-9.00 30.83,-9.11 30.84,-9.21 30.89,-9.31 30.93,-9.41 31.01,-9.48 31.08,-9.56 31.18,-9.60 31.27,-9.65 31.38,-9.67 31.48,-9.68 31.59,-9.66 31.69,-9.64 31.78,-9.59 31.88,-9.54 31.95,-9.46 32.02,-9.38 32.06,-9.29 32.10,-9.19 32.11,-9.08 32.12,-8.98 32.10,-8.87 32.07,-8.77 32.02,-8.68 31.96,-8.59 31.88,-8.52 31.79,-8.46 31.80,-8.46 31.80,-8.46 28.68,-6.64 25.57,-4.82 23.15,-4.11 20.74,-3.41 17.86,-2.68 14.98,-1.96 12.13,-1.10 9.29,-0.25 6.26,0.38 3.24,1.02 1.67,0.95 0.11,0.88 0.00,0.89 -0.10,0.89 -0.21,0.86 -0.31,0.83 -0.41,0.78 -0.50,0.73 -0.58,0.66 -0.66,0.59 -0.73,0.50 -0.79,0.41 -0.83,0.31 -0.86,0.21 -0.88,0.11 -0.89,0.00 -0.88,-0.10 -0.87,-0.21 -0.83,-0.31 -0.79,-0.41 -0.73,-0.50 -0.67,-0.59 -0.59,-0.66 -0.51,-0.73 -0.41,-0.78 -0.32,-0.83 -0.21,-0.86 -0.11,-0.88 -0.11,-0.88 L -0.11,-0.88 Z"/></g><g transform="translate(95.33331298828125 160.66665649414062) rotate(0 10.333343505859375 7.6666717529296875)" stroke="none"><path fill="#000000" d="M 0,-0.93 Q 0,-0.93 0.77,-1.10 1.55,-1.27 2.90,-0.89 4.26,-0.52 6.93,2.26 9.61,5.05 11.61,7.32 13.61,9.60 15.15,11.08 16.70,12.55 18.36,13.77 20.02,14.98 20.11,15.04 20.20,15.10 20.26,15.19 20.33,15.27 20.36,15.37 20.40,15.47 20.40,15.58 20.40,15.68 20.37,15.78 20.33,15.89 20.27,15.97 20.21,16.06 20.12,16.12 20.03,16.18 19.93,16.21 19.83,16.24 19.72,16.23 19.62,16.23 19.52,16.19 19.42,16.15 19.34,16.08 19.25,16.01 19.20,15.92 19.14,15.83 19.12,15.73 19.10,15.62 19.11,15.52 19.12,15.41 19.16,15.32 19.21,15.22 19.28,15.14 19.35,15.06 19.44,15.01 19.54,14.96 19.64,14.94 19.75,14.93 19.85,14.94 19.96,14.96 20.05,15.01 20.14,15.06 20.22,15.13 20.29,15.21 20.34,15.31 20.38,15.40 20.40,15.51 20.41,15.61 20.39,15.72 20.36,15.82 20.31,15.91 20.26,16.00 20.18,16.07 20.09,16.14 20.00,16.18 19.90,16.22 19.79,16.23 19.69,16.24 19.58,16.21 19.48,16.18 19.48,16.18 19.48,16.18 17.02,15.53 14.55,14.87 12.89,13.27 11.22,11.66 9.28,9.37 7.34,7.09 5.25,4.57 3.17,2.05 2.34,1.66 1.50,1.27 0.75,1.10 0,0.93 -0.11,0.92 -0.22,0.91 -0.33,0.87 -0.43,0.83 -0.52,0.76 -0.62,0.70 -0.69,0.61 -0.77,0.53 -0.82,0.43 -0.87,0.33 -0.90,0.22 -0.93,0.11 -0.93,-0.00 -0.93,-0.11 -0.90,-0.22 -0.87,-0.33 -0.82,-0.43 -0.77,-0.53 -0.69,-0.61 -0.62,-0.70 -0.52,-0.76 -0.43,-0.83 -0.33,-0.87 -0.22,-0.91 -0.11,-0.92 0.00,-0.93 0.00,-0.93 L 0,-0.93 Z"/></g><g transform="translate(151.33331298828125 157.33334350585938) rotate(0 -8.666656494140625 11.666656494140625)" stroke="none"><path fill="#000000" d="M 0,1.01 Q 0,1.01 -0.76,1.21 -1.52,1.42 -2.27,1.64 -3.01,1.87 -4.69,2.35 -6.36,2.83 -8.25,3.92 -10.14,5.00 -11.42,6.33 -12.70,7.65 -13.57,9.23 -14.44,10.82 -14.79,12.66 -15.14,14.50 -14.78,15.99 -14.42,17.48 -13.12,18.70 -11.82,19.92 -10.50,20.42 -9.18,20.92 -7.87,20.77 -6.56,20.63 -5.58,20.10 -4.61,19.57 -3.95,18.58 -3.30,17.59 -3.05,16.01 -2.81,14.42 -2.86,12.86 -2.92,11.31 -3.46,10.07 -4.00,8.83 -4.73,7.79 -5.47,6.75 -6.21,6.21 -6.96,5.68 -7.08,5.46 -7.19,5.24 -7.31,5.13 -7.43,5.01 -7.52,4.87 -7.60,4.73 -7.65,4.57 -7.70,4.42 -7.72,4.25 -7.73,4.09 -7.70,3.93 -7.67,3.76 -7.61,3.61 -7.54,3.46 -7.44,3.33 -7.34,3.20 -7.21,3.10 -7.08,3.00 -6.93,2.93 -6.78,2.86 -6.62,2.83 -6.46,2.79 -6.30,2.80 -6.13,2.81 -5.97,2.86 -5.82,2.91 -5.67,2.99 -5.53,3.07 -4.30,2.14 -3.06,1.21 -2.96,1.17 -2.87,1.13 -2.76,1.12 -2.66,1.11 -2.55,1.13 -2.45,1.16 -2.36,1.21 -2.27,1.27 -2.20,1.35 -2.13,1.43 -2.10,1.53 -2.06,1.63 -2.05,1.74 -2.05,1.85 -2.08,1.95 -2.11,2.05 -2.17,2.14 -2.23,2.22 -2.32,2.29 -2.40,2.35 -2.51,2.38 -2.61,2.41 -2.71,2.41 -2.82,2.41 -2.92,2.37 -3.02,2.34 -3.10,2.27 -3.19,2.21 -3.24,2.12 -3.30,2.03 -3.33,1.93 -3.36,1.82 -3.35,1.72 -3.34,1.61 -3.30,1.51 -3.26,1.42 -3.19,1.34 -3.12,1.26 -3.03,1.20 -2.93,1.15 -2.83,1.13 -2.73,1.11 -2.62,1.12 -2.52,1.13 -2.42,1.18 -2.32,1.23 -2.25,1.30 -2.17,1.38 -2.12,1.47 -2.08,1.56 -2.06,1.67 -2.05,1.78 -2.06,1.88 -2.08,1.98 -2.13,2.08 -2.19,2.17 -2.26,2.24 -2.34,2.31 -2.34,2.31 -2.34,2.31 -4.77,3.78 -7.19,5.24 -7.31,5.13 -7.43,5.01 -7.52,4.87 -7.60,4.73 -7.65,4.57 -7.70,4.42 -7.72,4.25 -7.73,4.09 -7.70,3.93 -7.67,3.76 -7.61,3.61 -7.54,3.46 -7.44,3.33 -7.34,3.20 -7.21,3.10 -7.08,3.00 -6.93,2.93 -6.78,2.86 -6.62,2.83 -6.46,2.79 -6.30,2.80 -6.13,2.81 -5.97,2.86 -5.82,2.91 -5.67,2.99 -5.53,3.07 -5.25,3.07 -4.96,3.07 -3.86,3.96 -2.75,4.84 -1.84,6.23 -0.93,7.62 -0.30,9.41 0.32,11.19 0.32,13.13 0.32,15.07 -0.22,17.21 -0.76,19.35 -1.95,20.80 -3.14,22.25 -4.71,22.96 -6.28,23.67 -8.24,23.73 -10.21,23.79 -12.09,22.97 -13.96,22.15 -15.68,20.26 -17.40,18.38 -17.82,16.18 -18.25,13.97 -17.75,11.63 -17.25,9.28 -16.12,7.34 -14.99,5.39 -13.35,3.81 -11.72,2.24 -9.46,1.01 -7.20,-0.20 -5.42,-0.65 -3.65,-1.10 -2.59,-1.26 -1.53,-1.42 -0.76,-1.21 0,-1.01 0.12,-1.00 0.24,-0.98 0.35,-0.94 0.47,-0.89 0.57,-0.82 0.67,-0.76 0.75,-0.66 0.83,-0.57 0.89,-0.46 0.94,-0.36 0.97,-0.24 1.00,-0.12 1.00,0.00 1.00,0.12 0.97,0.24 0.94,0.36 0.89,0.46 0.83,0.57 0.75,0.66 0.67,0.76 0.57,0.82 0.47,0.89 0.35,0.94 0.24,0.98 0.12,1.00 -0.00,1.01 -0.00,1.01 L 0,1.01 Z"/></g><g transform="translate(161.33331298828125 158.66665649414062) rotate(0 4.333343505859375 11.666671752929688)" stroke="none"><path fill="#000000" d="M 0.90,0 Q 0.90,0 1.02,0.95 1.13,1.91 1.20,3.47 1.27,5.03 1.30,7.22 1.34,9.42 1.17,12.50 1.00,15.59 0.75,17.89 0.50,20.19 0.21,20.95 -0.07,21.71 -0.11,21.88 -0.16,22.06 -0.24,22.21 -0.32,22.37 -0.44,22.51 -0.56,22.64 -0.71,22.74 -0.85,22.84 -1.02,22.90 -1.19,22.97 -1.36,22.99 -1.54,23.01 -1.72,22.99 -1.89,22.97 -2.06,22.90 -2.23,22.84 -2.37,22.74 -2.52,22.64 -2.64,22.51 -2.76,22.37 -2.84,22.21 -2.92,22.06 -2.97,21.88 -3.01,21.71 -3.01,21.53 -3.01,21.35 -3.01,18.57 -3.01,15.80 -2.54,13.96 -2.07,12.12 -0.86,9.72 0.34,7.32 1.74,5.79 3.15,4.27 4.91,3.81 6.67,3.35 8.10,4.47 9.54,5.59 10.40,8.81 11.26,12.02 11.57,14.49 11.89,16.95 11.28,19.88 10.67,22.81 10.65,22.91 10.63,23.02 10.58,23.11 10.52,23.20 10.44,23.27 10.36,23.34 10.27,23.38 10.17,23.42 10.06,23.43 9.96,23.44 9.85,23.41 9.75,23.38 9.66,23.33 9.57,23.27 9.51,23.18 9.44,23.10 9.40,23.00 9.37,22.90 9.37,22.79 9.37,22.69 9.40,22.59 9.43,22.49 9.49,22.40 9.56,22.31 9.64,22.25 9.73,22.19 9.83,22.16 9.93,22.13 10.04,22.14 10.15,22.14 10.25,22.18 10.34,22.22 10.43,22.28 10.51,22.35 10.57,22.44 10.62,22.53 10.65,22.63 10.67,22.74 10.66,22.84 10.65,22.95 10.61,23.05 10.56,23.14 10.49,23.22 10.42,23.30 10.33,23.35 10.24,23.40 10.13,23.42 10.03,23.44 9.92,23.42 9.82,23.41 9.72,23.36 9.63,23.31 9.55,23.24 9.48,23.16 9.43,23.07 9.39,22.97 9.37,22.86 9.36,22.76 9.36,22.76 9.36,22.76 9.00,20.04 8.63,17.31 8.41,15.00 8.19,12.69 7.77,10.08 7.36,7.47 6.70,6.62 6.04,5.76 5.59,6.05 5.14,6.35 4.03,7.51 2.93,8.67 1.85,10.78 0.77,12.88 0.35,14.44 -0.05,15.99 -0.20,17.98 -0.34,19.98 -0.20,20.84 -0.07,21.71 -0.11,21.88 -0.16,22.06 -0.24,22.21 -0.32,22.37 -0.44,22.51 -0.56,22.64 -0.71,22.74 -0.85,22.84 -1.02,22.90 -1.19,22.97 -1.36,22.99 -1.54,23.01 -1.72,22.99 -1.89,22.97 -2.06,22.90 -2.23,22.84 -2.37,22.74 -2.52,22.64 -2.64,22.51 -2.76,22.37 -2.84,22.21 -2.92,22.06 -2.97,21.88 -3.01,21.71 -3.01,21.53 -3.01,21.35 -2.68,20.58 -2.35,19.81 -2.06,17.61 -1.76,15.41 -1.55,12.41 -1.34,9.42 -1.30,7.22 -1.27,5.03 -1.20,3.47 -1.13,1.91 -1.02,0.95 -0.90,0 -0.89,-0.10 -0.87,-0.21 -0.83,-0.31 -0.80,-0.42 -0.73,-0.50 -0.67,-0.59 -0.59,-0.67 -0.51,-0.74 -0.41,-0.79 -0.32,-0.84 -0.21,-0.87 -0.10,-0.89 0.00,-0.89 0.10,-0.89 0.21,-0.87 0.32,-0.84 0.41,-0.79 0.51,-0.74 0.59,-0.67 0.67,-0.59 0.73,-0.50 0.80,-0.41 0.83,-0.31 0.87,-0.21 0.89,-0.10 0.90,0.00 0.90,0.00 L 0.90,0 Z"/></g><g transform="translate(205.33331298828125 150) rotate(0 -1.6666259765625 16.333328247070312)" stroke="none"><path fill="#000000" d="M -0.12,0.77 Q -0.12,0.77 -1.32,0.89 -2.51,1.01 -3.30,1.11 -4.08,1.21 -4.56,1.86 -5.03,2.52 -5.64,3.67 -6.25,4.82 -7.10,6.66 -7.95,8.51 -8.28,9.93 -8.60,11.35 -6.97,11.99 -5.35,12.64 -3.47,13.18 -1.59,13.73 0.08,14.59 1.77,15.45 3.36,16.87 4.96,18.29 5.91,20.00 6.87,21.71 7.47,23.87 8.07,26.02 7.93,27.96 7.78,29.90 6.78,31.36 5.77,32.82 3.95,33.70 2.13,34.58 -0.18,34.54 -2.49,34.50 -4.19,34.24 -5.89,33.98 -7.43,33.10 -8.98,32.23 -9.61,30.26 -10.24,28.29 -10.28,28.19 -10.31,28.09 -10.31,27.98 -10.30,27.87 -10.27,27.77 -10.23,27.67 -10.17,27.59 -10.10,27.51 -10.01,27.45 -9.92,27.39 -9.82,27.36 -9.72,27.34 -9.61,27.34 -9.51,27.35 -9.41,27.39 -9.31,27.43 -9.23,27.50 -9.15,27.57 -9.10,27.67 -9.04,27.76 -9.02,27.86 -9.00,27.97 -9.02,28.07 -9.03,28.18 -9.08,28.27 -9.12,28.37 -9.20,28.44 -9.27,28.52 -9.37,28.57 -9.46,28.62 -9.57,28.63 -9.67,28.65 -9.78,28.63 -9.88,28.61 -9.97,28.56 -10.07,28.51 -10.14,28.43 -10.21,28.35 -10.25,28.25 -10.29,28.15 -10.30,28.05 -10.31,27.94 -10.29,27.84 -10.26,27.74 -10.21,27.65 -10.15,27.56 -10.07,27.49 -9.99,27.42 -9.89,27.38 -9.79,27.35 -9.68,27.34 -9.58,27.34 -9.47,27.37 -9.37,27.40 -9.29,27.46 -9.20,27.52 -9.14,27.61 -9.07,27.69 -9.07,27.69 -9.07,27.69 -8.18,28.73 -7.29,29.76 -6.32,30.24 -5.34,30.72 -3.82,30.93 -2.31,31.14 -0.66,31.32 0.97,31.50 2.16,31.09 3.35,30.68 4.01,30.00 4.68,29.33 4.85,28.05 5.01,26.77 4.56,24.96 4.10,23.15 3.47,21.84 2.83,20.53 1.58,19.35 0.32,18.18 -1.07,17.43 -2.47,16.69 -4.24,16.18 -6.01,15.66 -7.83,15.22 -9.65,14.78 -10.46,14.06 -11.27,13.34 -11.44,12.00 -11.61,10.66 -11.18,8.94 -10.74,7.21 -9.82,5.27 -8.89,3.32 -8.02,1.86 -7.15,0.40 -5.96,-0.56 -4.76,-1.53 -3.42,-1.66 -2.08,-1.78 -0.97,-1.27 0.12,-0.77 0.21,-0.74 0.30,-0.71 0.39,-0.67 0.47,-0.62 0.53,-0.55 0.60,-0.49 0.65,-0.41 0.70,-0.33 0.73,-0.24 0.76,-0.15 0.77,-0.05 0.78,0.03 0.76,0.12 0.75,0.22 0.71,0.30 0.67,0.39 0.61,0.46 0.56,0.54 0.48,0.60 0.41,0.66 0.32,0.70 0.24,0.74 0.15,0.76 0.05,0.77 -0.03,0.77 -0.12,0.77 -0.12,0.77 L -0.12,0.77 Z"/></g><g transform="translate(233.33331298828125 143.33334350585938) rotate(0 -3.33331298828125 15.33331298828125)" stroke="none"><path fill="#000000" d="M 0.91,0.40 Q 0.91,0.40 0.43,2.25 -0.05,4.10 -1.36,6.44 -2.68,8.78 -3.75,11.55 -4.82,14.33 -6.06,17.64 -7.30,20.96 -7.59,23.33 -7.89,25.70 -7.58,26.95 -7.26,28.19 -6.47,28.53 -5.67,28.86 -4.69,28.72 -3.70,28.57 -2.49,27.52 -1.29,26.47 -0.31,25.49 0.65,24.52 1.83,23.16 3.01,21.79 3.08,21.71 3.14,21.62 3.23,21.56 3.31,21.50 3.42,21.47 3.52,21.45 3.62,21.45 3.73,21.46 3.83,21.49 3.93,21.53 4.01,21.60 4.09,21.67 4.15,21.76 4.20,21.85 4.23,21.95 4.25,22.06 4.24,22.16 4.23,22.27 4.18,22.37 4.14,22.46 4.07,22.54 3.99,22.62 3.90,22.67 3.81,22.72 3.70,22.74 3.60,22.75 3.49,22.74 3.39,22.72 3.29,22.67 3.20,22.62 3.13,22.55 3.05,22.47 3.01,22.37 2.96,22.28 2.95,22.17 2.94,22.07 2.96,21.96 2.98,21.86 3.04,21.77 3.09,21.68 3.17,21.61 3.25,21.54 3.35,21.50 3.45,21.46 3.55,21.45 3.66,21.44 3.76,21.47 3.87,21.50 3.95,21.56 4.04,21.62 4.11,21.70 4.17,21.79 4.21,21.89 4.24,21.99 4.24,22.09 4.24,22.20 4.21,22.30 4.18,22.40 4.18,22.40 4.18,22.40 3.54,24.53 2.90,26.66 1.77,27.84 0.64,29.03 -1.29,30.35 -3.22,31.67 -5.13,31.68 -7.03,31.70 -8.52,30.62 -10.00,29.54 -10.55,27.45 -11.11,25.37 -10.73,22.61 -10.35,19.84 -9.10,16.50 -7.85,13.15 -6.68,10.16 -5.51,7.18 -4.26,4.98 -3.01,2.79 -1.96,1.19 -0.91,-0.40 -0.85,-0.51 -0.79,-0.61 -0.70,-0.69 -0.62,-0.78 -0.51,-0.84 -0.41,-0.91 -0.30,-0.94 -0.18,-0.98 -0.06,-0.99 0.05,-1.00 0.17,-0.97 0.29,-0.95 0.40,-0.90 0.51,-0.85 0.60,-0.78 0.70,-0.71 0.77,-0.61 0.85,-0.52 0.90,-0.41 0.95,-0.30 0.97,-0.18 0.99,-0.06 0.99,0.05 0.98,0.17 0.95,0.29 0.91,0.40 0.91,0.40 L 0.91,0.40 Z"/></g><g transform="translate(216 154) rotate(0 13 0.6666717529296875)" stroke="none"><path fill="#000000" d="M -0.15,-1.07 Q -0.15,-1.07 1.16,-1.39 2.49,-1.72 4.46,-1.84 6.44,-1.96 10.19,-1.83 13.94,-1.69 16.93,-1.20 19.91,-0.72 22.45,0.19 24.99,1.11 25.09,1.15 25.19,1.19 25.27,1.26 25.35,1.33 25.41,1.42 25.47,1.51 25.49,1.61 25.51,1.71 25.50,1.82 25.49,1.92 25.45,2.02 25.40,2.12 25.33,2.20 25.26,2.27 25.17,2.32 25.07,2.37 24.97,2.39 24.86,2.41 24.76,2.39 24.65,2.38 24.56,2.33 24.46,2.28 24.39,2.20 24.32,2.13 24.27,2.03 24.23,1.94 24.21,1.83 24.20,1.72 24.22,1.62 24.25,1.52 24.30,1.42 24.35,1.33 24.43,1.26 24.51,1.19 24.61,1.15 24.71,1.11 24.82,1.11 24.92,1.10 25.03,1.13 25.13,1.16 25.22,1.22 25.30,1.27 25.37,1.36 25.43,1.44 25.47,1.54 25.50,1.64 25.51,1.75 25.51,1.86 25.47,1.96 25.44,2.06 25.38,2.14 25.31,2.23 25.22,2.29 25.14,2.35 25.04,2.38 24.93,2.41 24.83,2.40 24.72,2.40 24.72,2.40 24.72,2.40 22.10,2.23 19.48,2.06 16.65,1.64 13.81,1.22 10.19,1.05 6.56,0.87 4.72,0.91 2.87,0.95 1.51,1.01 0.15,1.07 0.02,1.07 -0.10,1.07 -0.23,1.04 -0.36,1.02 -0.47,0.96 -0.59,0.90 -0.69,0.81 -0.79,0.73 -0.87,0.62 -0.94,0.52 -0.99,0.40 -1.04,0.28 -1.06,0.15 -1.08,0.02 -1.07,-0.10 -1.05,-0.23 -1.01,-0.36 -0.96,-0.48 -0.89,-0.59 -0.82,-0.70 -0.72,-0.78 -0.63,-0.87 -0.51,-0.94 -0.40,-1.00 -0.27,-1.03 -0.15,-1.07 -0.15,-1.07 L -0.15,-1.07 Z"/></g><g transform="translate(256 156) rotate(0 8.666656494140625 7.333343505859375)" stroke="none"><path fill="#000000" d="M 0.91,0 Q 0.91,0 1.17,1.91 1.43,3.83 1.43,5.79 1.43,7.76 1.44,9.55 1.44,11.34 1.41,12.59 1.38,13.83 1.05,14.22 0.72,14.61 0.70,14.79 0.68,14.97 0.62,15.13 0.55,15.30 0.45,15.45 0.35,15.60 0.21,15.72 0.08,15.84 -0.07,15.92 -0.23,16.01 -0.41,16.05 -0.58,16.09 -0.76,16.09 -0.94,16.09 -1.12,16.05 -1.29,16.01 -1.45,15.92 -1.61,15.84 -1.75,15.72 -1.88,15.60 -1.98,15.45 -2.08,15.30 -2.15,15.13 -2.21,14.97 -2.23,14.79 -2.26,14.61 -2.79,12.94 -3.33,11.27 -3.01,9.20 -2.69,7.12 -2.13,5.43 -1.57,3.74 -0.52,2.56 0.52,1.39 2.01,1.03 3.51,0.66 5.63,1.17 7.75,1.69 9.45,2.08 11.15,2.48 12.65,2.84 14.16,3.20 16.27,3.89 18.39,4.58 18.49,4.60 18.59,4.63 18.68,4.69 18.77,4.75 18.84,4.83 18.90,4.92 18.94,5.02 18.97,5.12 18.97,5.22 18.97,5.33 18.94,5.43 18.91,5.53 18.85,5.62 18.78,5.70 18.70,5.76 18.61,5.82 18.51,5.85 18.40,5.88 18.30,5.88 18.19,5.87 18.09,5.84 17.99,5.80 17.91,5.73 17.83,5.66 17.77,5.57 17.72,5.48 17.69,5.38 17.67,5.27 17.68,5.17 17.69,5.06 17.73,4.97 17.78,4.87 17.85,4.79 17.92,4.71 18.02,4.66 18.11,4.61 18.21,4.59 18.32,4.57 18.42,4.59 18.53,4.61 18.62,4.66 18.72,4.70 18.79,4.78 18.86,4.86 18.91,4.95 18.96,5.05 18.97,5.15 18.98,5.26 18.96,5.36 18.94,5.47 18.88,5.56 18.83,5.65 18.75,5.72 18.67,5.79 18.57,5.83 18.47,5.87 18.37,5.88 18.26,5.88 18.26,5.88 18.26,5.88 15.83,6.13 13.39,6.38 11.90,6.02 10.40,5.65 8.64,5.23 6.88,4.82 5.38,4.32 3.88,3.83 3.17,3.81 2.46,3.78 1.91,4.31 1.37,4.85 0.89,6.26 0.41,7.67 0.09,9.29 -0.21,10.92 -0.18,11.82 -0.15,12.72 0.28,13.67 0.72,14.61 0.70,14.79 0.68,14.97 0.62,15.13 0.55,15.30 0.45,15.45 0.35,15.60 0.21,15.72 0.08,15.84 -0.07,15.92 -0.23,16.01 -0.41,16.05 -0.58,16.09 -0.76,16.09 -0.94,16.09 -1.12,16.05 -1.29,16.01 -1.45,15.92 -1.61,15.84 -1.75,15.72 -1.88,15.60 -1.98,15.45 -2.08,15.30 -2.15,15.13 -2.21,14.97 -2.23,14.79 -2.26,14.61 -1.82,14.03 -1.38,13.44 -1.41,12.39 -1.44,11.34 -1.44,9.55 -1.43,7.76 -1.43,5.79 -1.43,3.83 -1.17,1.91 -0.91,0 -0.89,-0.10 -0.88,-0.21 -0.84,-0.32 -0.80,-0.42 -0.74,-0.51 -0.68,-0.60 -0.59,-0.67 -0.51,-0.74 -0.42,-0.80 -0.32,-0.85 -0.21,-0.87 -0.10,-0.90 0.00,-0.90 0.10,-0.90 0.21,-0.87 0.32,-0.85 0.42,-0.80 0.51,-0.74 0.59,-0.67 0.68,-0.60 0.74,-0.51 0.80,-0.42 0.84,-0.32 0.88,-0.21 0.89,-0.10 0.91,0.00 0.91,0.00 L 0.91,0 Z"/></g><g transform="translate(282.66668701171875 152.66665649414062) rotate(0 15.33331298828125 6.6666717529296875)" stroke="none"><path fill="#000000" d="M -0.83,-0.27 Q -0.83,-0.27 -0.66,-1.47 -0.48,-2.66 -0.63,-3.02 -0.77,-3.38 -0.69,-3.56 -0.61,-3.73 -0.49,-3.87 -0.37,-4.02 -0.22,-4.13 -0.07,-4.25 0.09,-4.32 0.27,-4.39 0.45,-4.42 0.64,-4.45 0.83,-4.44 1.02,-4.42 1.20,-4.36 1.37,-4.30 1.53,-4.20 1.69,-4.10 1.82,-3.97 1.96,-3.83 2.05,-3.67 2.14,-3.50 2.20,-3.32 2.25,-3.14 2.26,-2.95 2.27,-2.76 2.23,-2.58 2.19,-2.39 1.88,-1.88 1.57,-1.37 1.19,-0.61 0.81,0.14 0.49,1.32 0.16,2.50 -0.17,4.14 -0.51,5.79 -0.45,7.48 -0.40,9.18 -0.02,10.96 0.34,12.75 0.90,13.64 1.45,14.52 2.57,14.16 3.68,13.79 4.50,12.98 5.32,12.18 6.43,10.73 7.55,9.28 8.16,7.84 8.76,6.39 9.23,5.00 9.69,3.61 9.88,2.69 10.07,1.76 10.34,1.36 10.62,0.95 10.68,0.76 10.75,0.57 10.85,0.40 10.96,0.23 11.11,0.09 11.25,-0.04 11.43,-0.13 11.60,-0.23 11.79,-0.29 11.99,-0.34 12.19,-0.35 12.39,-0.36 12.59,-0.32 12.78,-0.28 12.96,-0.19 13.14,-0.10 13.30,0.02 13.45,0.14 13.57,0.30 13.69,0.47 13.77,0.65 13.85,0.84 13.88,1.03 13.91,1.23 13.89,1.43 13.88,1.63 14.64,2.64 15.41,3.64 16.03,5.10 16.64,6.56 17.41,7.82 18.18,9.08 19.49,10.22 20.80,11.36 22.24,11.57 23.67,11.78 25.32,11.54 26.96,11.31 29.47,10.89 31.98,10.47 32.09,10.45 32.19,10.43 32.30,10.44 32.40,10.45 32.50,10.50 32.59,10.55 32.67,10.62 32.75,10.69 32.79,10.79 32.84,10.88 32.86,10.99 32.87,11.09 32.85,11.20 32.83,11.30 32.78,11.40 32.73,11.49 32.65,11.56 32.57,11.63 32.48,11.67 32.38,11.72 32.27,11.73 32.17,11.74 32.07,11.71 31.96,11.69 31.87,11.63 31.78,11.57 31.71,11.49 31.65,11.41 31.61,11.31 31.57,11.21 31.57,11.11 31.56,11.00 31.60,10.90 31.63,10.80 31.69,10.71 31.75,10.62 31.83,10.56 31.92,10.50 32.02,10.46 32.12,10.43 32.23,10.43 32.33,10.44 32.43,10.47 32.53,10.51 32.62,10.57 32.70,10.64 32.76,10.73 32.82,10.82 32.84,10.92 32.87,11.02 32.86,11.13 32.85,11.23 32.81,11.33 32.77,11.43 32.70,11.51 32.63,11.59 32.54,11.64 32.45,11.70 32.45,11.70 32.45,11.70 29.91,13.18 27.38,14.67 25.20,14.87 23.03,15.08 20.89,14.52 18.75,13.97 17.05,12.40 15.35,10.84 14.46,9.35 13.57,7.85 12.98,6.44 12.39,5.02 11.97,4.06 11.56,3.10 11.09,2.03 10.62,0.95 10.68,0.76 10.75,0.57 10.85,0.40 10.96,0.23 11.11,0.09 11.25,-0.04 11.43,-0.13 11.60,-0.23 11.79,-0.29 11.99,-0.34 12.19,-0.35 12.39,-0.36 12.59,-0.32 12.78,-0.28 12.96,-0.19 13.14,-0.10 13.30,0.02 13.45,0.14 13.57,0.30 13.69,0.47 13.77,0.65 13.85,0.84 13.88,1.03 13.91,1.23 13.89,1.43 13.88,1.63 13.59,2.08 13.30,2.52 13.07,3.60 12.84,4.68 12.32,6.20 11.80,7.72 10.99,9.51 10.17,11.30 8.85,12.97 7.53,14.63 6.23,15.73 4.92,16.83 3.33,17.28 1.73,17.73 0.36,17.14 -0.99,16.55 -1.92,15.02 -2.86,13.48 -3.29,11.37 -3.71,9.26 -3.74,7.19 -3.76,5.13 -3.38,3.35 -3.01,1.56 -2.55,0.08 -2.09,-1.40 -1.43,-2.39 -0.77,-3.38 -0.69,-3.55 -0.61,-3.73 -0.49,-3.87 -0.37,-4.02 -0.22,-4.13 -0.07,-4.25 0.09,-4.32 0.27,-4.39 0.45,-4.42 0.64,-4.45 0.83,-4.44 1.02,-4.42 1.20,-4.36 1.37,-4.30 1.53,-4.20 1.69,-4.10 1.82,-3.97 1.96,-3.83 2.05,-3.67 2.14,-3.50 2.20,-3.32 2.25,-3.14 2.26,-2.95 2.27,-2.76 2.23,-2.58 2.19,-2.39 2.10,-2.16 2.01,-1.93 1.42,-0.82 0.83,0.27 0.79,0.37 0.74,0.47 0.67,0.55 0.61,0.63 0.52,0.70 0.44,0.76 0.34,0.80 0.24,0.84 0.14,0.86 0.03,0.88 -0.07,0.87 -0.17,0.86 -0.27,0.83 -0.37,0.79 -0.46,0.74 -0.55,0.68 -0.63,0.60 -0.70,0.53 -0.75,0.43 -0.81,0.34 -0.84,0.24 -0.87,0.14 -0.87,0.03 -0.87,-0.07 -0.85,-0.17 -0.83,-0.27 -0.83,-0.27 L -0.83,-0.27 Z"/></g><g transform="translate(326.66668701171875 154.66665649414062) rotate(0 6.666656494140625 0.333343505859375)" stroke="none"><path fill="#000000" d="M 0.84,-0.33 Q 0.84,-0.33 1.27,0.32 1.70,0.98 3.07,1.11 4.43,1.24 5.76,0.85 7.09,0.45 8.67,-0.92 10.24,-2.30 11.27,-3.76 12.30,-5.21 12.69,-6.45 13.08,-7.69 13.24,-8.29 13.40,-8.90 12.64,-9.21 11.88,-9.51 10.53,-8.99 9.19,-8.47 7.57,-6.90 5.96,-5.33 4.50,-3.20 3.03,-1.07 2.06,1.25 1.09,3.59 0.89,5.92 0.68,8.25 0.89,9.02 1.10,9.78 2.93,10.24 4.75,10.70 4.85,10.71 4.96,10.72 5.06,10.77 5.15,10.81 5.23,10.89 5.31,10.96 5.35,11.05 5.40,11.15 5.42,11.25 5.44,11.36 5.42,11.46 5.40,11.57 5.35,11.66 5.30,11.76 5.22,11.83 5.14,11.90 5.05,11.94 4.95,11.99 4.84,12.00 4.74,12.01 4.63,11.98 4.53,11.96 4.44,11.91 4.35,11.85 4.28,11.77 4.21,11.69 4.17,11.59 4.14,11.49 4.13,11.38 4.13,11.28 4.16,11.17 4.19,11.07 4.25,10.98 4.31,10.90 4.39,10.83 4.48,10.77 4.58,10.74 4.68,10.70 4.78,10.71 4.89,10.71 4.99,10.74 5.09,10.78 5.18,10.84 5.26,10.91 5.32,10.99 5.38,11.08 5.40,11.19 5.43,11.29 5.43,11.39 5.42,11.50 5.38,11.60 5.34,11.70 5.27,11.78 5.20,11.86 5.11,11.91 5.02,11.97 4.91,11.99 4.81,12.01 4.81,12.01 4.81,12.01 1.83,11.86 -1.15,11.71 -1.87,9.89 -2.59,8.07 -2.28,5.20 -1.97,2.34 -0.82,-0.30 0.31,-2.96 2.02,-5.37 3.73,-7.78 5.97,-9.68 8.21,-11.58 10.51,-12.00 12.82,-12.42 14.34,-11.33 15.86,-10.23 15.98,-8.46 16.10,-6.69 15.49,-5.03 14.88,-3.38 13.56,-1.63 12.24,0.10 10.08,1.75 7.93,3.40 5.90,3.80 3.88,4.21 1.85,3.52 -0.17,2.84 -0.51,1.59 -0.84,0.33 -0.87,0.23 -0.90,0.12 -0.90,0.01 -0.90,-0.09 -0.88,-0.20 -0.85,-0.30 -0.80,-0.40 -0.75,-0.50 -0.68,-0.58 -0.61,-0.67 -0.52,-0.73 -0.43,-0.79 -0.33,-0.83 -0.23,-0.88 -0.12,-0.89 -0.01,-0.91 0.09,-0.89 0.20,-0.88 0.30,-0.85 0.40,-0.81 0.50,-0.75 0.59,-0.69 0.66,-0.61 0.74,-0.53 0.79,-0.43 0.84,-0.33 0.84,-0.33 L 0.84,-0.33 Z"/></g><g transform="translate(351.33331298828125 140) rotate(0 2.66668701171875 14.333328247070312)" stroke="none"><path fill="#000000" d="M 0.98,0.39 Q 0.98,0.39 0.76,1.41 0.54,2.43 0.27,4.61 -0.00,6.78 -0.32,10.23 -0.65,13.67 -1.17,16.74 -1.70,19.81 -2.11,22.06 -2.52,24.31 -3.58,26.11 -4.65,27.91 -5.96,27.57 -7.28,27.24 -7.62,26.12 -7.96,25.01 -7.65,22.99 -7.34,20.97 -6.56,19.08 -5.78,17.19 -3.77,15.25 -1.75,13.31 0.37,12.27 2.50,11.23 4.52,10.97 6.53,10.70 8.81,11.32 11.09,11.94 11.19,11.96 11.29,11.99 11.38,12.04 11.47,12.10 11.54,12.18 11.61,12.26 11.64,12.36 11.68,12.46 11.69,12.57 11.69,12.68 11.66,12.78 11.63,12.88 11.57,12.97 11.51,13.05 11.42,13.12 11.34,13.18 11.23,13.21 11.13,13.24 11.03,13.24 10.92,13.24 10.82,13.20 10.72,13.17 10.64,13.10 10.55,13.04 10.50,12.95 10.44,12.86 10.41,12.76 10.38,12.65 10.39,12.55 10.40,12.44 10.44,12.34 10.48,12.24 10.55,12.16 10.62,12.08 10.71,12.03 10.81,11.98 10.91,11.96 11.01,11.94 11.12,11.95 11.23,11.96 11.32,12.01 11.42,12.06 11.49,12.13 11.57,12.20 11.62,12.30 11.66,12.39 11.68,12.50 11.70,12.60 11.68,12.71 11.66,12.81 11.61,12.91 11.55,13.00 11.48,13.07 11.40,13.14 11.30,13.19 11.20,13.23 11.10,13.24 10.99,13.25 10.99,13.25 10.99,13.25 8.93,13.55 6.87,13.86 5.33,13.98 3.79,14.11 2.06,14.88 0.33,15.65 -1.31,17.07 -2.96,18.50 -3.59,20.01 -4.22,21.53 -4.52,23.01 -4.82,24.49 -4.80,25.30 -4.77,26.11 -5.23,25.79 -5.69,25.47 -5.63,24.60 -5.57,23.73 -5.15,21.50 -4.72,19.28 -4.20,16.32 -3.67,13.37 -3.31,9.85 -2.95,6.33 -2.51,3.87 -2.07,1.40 -1.53,0.50 -0.98,-0.39 -0.92,-0.50 -0.86,-0.61 -0.77,-0.71 -0.69,-0.80 -0.58,-0.87 -0.47,-0.95 -0.35,-0.99 -0.23,-1.03 -0.10,-1.04 0.01,-1.06 0.14,-1.04 0.27,-1.02 0.39,-0.97 0.51,-0.93 0.61,-0.85 0.71,-0.78 0.80,-0.68 0.88,-0.58 0.94,-0.47 1.00,-0.35 1.02,-0.23 1.05,-0.10 1.05,0.01 1.05,0.14 1.02,0.27 0.98,0.39 0.98,0.39 L 0.98,0.39 Z"/></g><g transform="translate(369.33331298828125 156.66665649414062) rotate(0 8.000030517578125 5.0000152587890625)" stroke="none"><path fill="#000000" d="M 0.98,-0.49 Q 0.98,-0.49 1.40,0.09 1.83,0.68 2.41,0.72 2.99,0.76 4.55,0.30 6.11,-0.15 7.25,-1.00 8.40,-1.85 9.25,-2.73 10.09,-3.61 10.36,-4.15 10.62,-4.69 9.97,-4.77 9.32,-4.86 8.38,-4.22 7.44,-3.59 6.09,-2.27 4.74,-0.95 3.67,0.99 2.60,2.95 2.19,5.70 1.78,8.46 2.08,10.32 2.38,12.19 3.62,13.11 4.87,14.03 6.52,14.44 8.18,14.84 9.89,14.69 11.59,14.55 13.58,14.43 15.57,14.31 15.68,14.30 15.78,14.28 15.89,14.30 15.99,14.32 16.09,14.37 16.18,14.43 16.25,14.51 16.32,14.58 16.36,14.68 16.41,14.78 16.41,14.88 16.42,14.99 16.40,15.09 16.37,15.20 16.32,15.29 16.26,15.38 16.18,15.44 16.10,15.51 16.00,15.55 15.90,15.58 15.79,15.59 15.68,15.59 15.58,15.56 15.48,15.53 15.39,15.47 15.31,15.41 15.24,15.32 15.18,15.23 15.15,15.13 15.12,15.03 15.12,14.93 15.12,14.82 15.16,14.72 15.20,14.62 15.26,14.54 15.33,14.45 15.42,14.40 15.51,14.34 15.61,14.31 15.71,14.29 15.82,14.29 15.92,14.30 16.02,14.34 16.12,14.39 16.20,14.46 16.28,14.53 16.33,14.62 16.38,14.71 16.41,14.82 16.43,14.92 16.41,15.02 16.40,15.13 16.35,15.23 16.30,15.32 16.23,15.40 16.15,15.47 16.06,15.52 15.96,15.57 15.96,15.57 15.96,15.57 13.91,16.71 11.85,17.86 9.58,18.00 7.30,18.14 5.01,17.41 2.71,16.67 0.97,14.92 -0.76,13.17 -1.16,10.55 -1.57,7.93 -0.94,4.65 -0.31,1.36 1.07,-0.98 2.45,-3.32 4.17,-4.90 5.90,-6.48 7.67,-7.25 9.44,-8.02 10.82,-7.62 12.19,-7.22 12.84,-5.80 13.48,-4.37 12.91,-2.93 12.34,-1.49 11.24,-0.41 10.14,0.67 8.49,1.72 6.85,2.78 4.55,3.19 2.25,3.60 0.97,2.99 -0.30,2.38 -0.64,1.43 -0.98,0.49 -1.02,0.36 -1.07,0.24 -1.08,0.10 -1.09,-0.02 -1.07,-0.15 -1.05,-0.28 -1.01,-0.40 -0.96,-0.52 -0.88,-0.63 -0.80,-0.74 -0.70,-0.82 -0.60,-0.91 -0.48,-0.97 -0.36,-1.03 -0.23,-1.06 -0.11,-1.09 0.02,-1.08 0.15,-1.08 0.28,-1.05 0.40,-1.01 0.52,-0.95 0.64,-0.89 0.73,-0.80 0.83,-0.71 0.90,-0.60 0.98,-0.49 0.98,-0.49 L 0.98,-0.49 Z"/></g><g transform="translate(458.66668701171875 144.66665649414062) rotate(0 -6 15.000015258789062)" stroke="none"><path fill="#000000" d="M -0.72,0.48 Q -0.72,0.48 -1.34,0.10 -1.96,-0.27 -2.49,-0.45 -3.02,-0.64 -3.56,-0.72 -4.11,-0.81 -5.01,-0.17 -5.91,0.46 -6.86,1.39 -7.82,2.32 -8.75,3.77 -9.69,5.22 -10.26,6.53 -10.83,7.84 -10.84,9.11 -10.86,10.38 -10.58,11.10 -10.31,11.81 -9.81,12.13 -9.31,12.44 -8.44,12.77 -7.58,13.10 -6.02,13.66 -4.46,14.22 -2.34,15.28 -0.23,16.33 1.39,17.67 3.01,19.00 3.84,20.80 4.67,22.60 4.60,24.55 4.52,26.50 3.78,28.08 3.04,29.66 1.16,31.06 -0.71,32.46 -2.69,32.86 -4.67,33.27 -6.86,32.79 -9.04,32.31 -11.01,31.02 -12.98,29.72 -14.34,28.06 -15.69,26.40 -15.76,26.32 -15.84,26.24 -15.88,26.14 -15.92,26.05 -15.93,25.94 -15.94,25.83 -15.92,25.73 -15.90,25.63 -15.84,25.54 -15.78,25.45 -15.70,25.38 -15.62,25.31 -15.52,25.27 -15.42,25.23 -15.32,25.23 -15.21,25.22 -15.11,25.25 -15.01,25.28 -14.92,25.34 -14.83,25.40 -14.77,25.49 -14.71,25.58 -14.67,25.68 -14.64,25.78 -14.64,25.88 -14.64,25.99 -14.68,26.09 -14.71,26.19 -14.78,26.27 -14.84,26.36 -14.93,26.42 -15.02,26.48 -15.12,26.50 -15.22,26.53 -15.33,26.52 -15.44,26.52 -15.53,26.48 -15.63,26.44 -15.71,26.37 -15.79,26.30 -15.85,26.21 -15.90,26.11 -15.92,26.01 -15.94,25.91 -15.93,25.80 -15.92,25.69 -15.87,25.60 -15.83,25.50 -15.75,25.43 -15.68,25.35 -15.59,25.30 -15.49,25.25 -15.39,25.24 -15.28,25.22 -15.18,25.24 -15.07,25.26 -14.98,25.31 -14.89,25.36 -14.89,25.36 -14.89,25.36 -13.04,26.18 -11.19,27.01 -9.67,28.02 -8.16,29.03 -6.64,29.46 -5.13,29.90 -3.82,29.75 -2.52,29.60 -1.18,28.79 0.14,27.98 0.65,27.06 1.17,26.14 1.34,24.93 1.52,23.72 1.13,22.58 0.74,21.45 -0.50,20.39 -1.75,19.33 -3.68,18.36 -5.61,17.39 -7.26,16.79 -8.92,16.19 -10.20,15.59 -11.49,14.99 -12.43,14.03 -13.38,13.07 -13.80,11.68 -14.22,10.29 -14.08,8.42 -13.93,6.54 -13.22,4.96 -12.50,3.37 -11.31,1.62 -10.12,-0.12 -8.80,-1.31 -7.47,-2.49 -5.69,-3.23 -3.92,-3.97 -2.69,-3.68 -1.45,-3.40 -0.51,-2.71 0.43,-2.02 0.57,-1.25 0.72,-0.48 0.77,-0.39 0.82,-0.29 0.84,-0.19 0.87,-0.09 0.86,0.01 0.86,0.11 0.84,0.22 0.81,0.32 0.76,0.41 0.71,0.50 0.64,0.58 0.56,0.66 0.48,0.72 0.39,0.78 0.29,0.81 0.19,0.85 0.09,0.86 -0.01,0.87 -0.11,0.86 -0.22,0.84 -0.32,0.80 -0.41,0.76 -0.50,0.70 -0.59,0.64 -0.65,0.56 -0.72,0.48 -0.72,0.48 L -0.72,0.48 Z"/></g><g transform="translate(482.66668701171875 152) rotate(0 -1.66668701171875 10)" stroke="none"><path fill="#000000" d="M 0.54,0.81 Q 0.54,0.81 0.08,1.35 -0.37,1.89 -1.32,3.34 -2.27,4.80 -2.87,6.39 -3.48,7.97 -3.95,9.60 -4.41,11.24 -4.59,12.79 -4.77,14.34 -4.56,15.46 -4.34,16.58 -3.53,17.01 -2.72,17.45 -1.95,17.49 -1.19,17.54 -0.50,16.94 0.17,16.33 1.37,15.54 2.56,14.75 2.62,14.66 2.68,14.58 2.76,14.51 2.85,14.45 2.95,14.42 3.05,14.38 3.16,14.39 3.26,14.39 3.36,14.42 3.47,14.46 3.55,14.52 3.63,14.59 3.69,14.67 3.75,14.76 3.78,14.86 3.81,14.97 3.80,15.07 3.79,15.18 3.75,15.28 3.71,15.38 3.64,15.46 3.57,15.54 3.48,15.59 3.39,15.65 3.29,15.67 3.18,15.69 3.08,15.68 2.97,15.66 2.88,15.62 2.78,15.57 2.70,15.50 2.63,15.43 2.58,15.33 2.53,15.24 2.51,15.13 2.50,15.03 2.51,14.92 2.53,14.82 2.58,14.72 2.63,14.63 2.71,14.56 2.79,14.49 2.89,14.44 2.98,14.40 3.09,14.39 3.19,14.38 3.30,14.40 3.40,14.43 3.49,14.48 3.58,14.54 3.65,14.62 3.72,14.70 3.76,14.80 3.80,14.90 3.80,15.00 3.80,15.11 3.78,15.21 3.75,15.31 3.75,15.31 3.75,15.31 2.83,17.19 1.91,19.06 0.40,19.86 -1.10,20.65 -2.79,20.38 -4.47,20.11 -5.83,18.90 -7.19,17.69 -7.56,15.85 -7.93,14.00 -7.69,12.18 -7.46,10.37 -6.94,8.58 -6.42,6.80 -5.62,4.85 -4.81,2.90 -4.00,1.91 -3.19,0.91 -2.56,0.27 -1.92,-0.35 -1.23,-0.58 -0.54,-0.81 -0.43,-0.86 -0.33,-0.91 -0.21,-0.94 -0.10,-0.96 0.01,-0.96 0.13,-0.96 0.24,-0.93 0.36,-0.90 0.46,-0.84 0.56,-0.79 0.65,-0.71 0.73,-0.63 0.80,-0.53 0.86,-0.43 0.90,-0.32 0.94,-0.21 0.96,-0.10 0.97,0.01 0.95,0.13 0.94,0.24 0.89,0.35 0.85,0.46 0.78,0.56 0.71,0.65 0.62,0.73 0.54,0.81 0.54,0.81 L 0.54,0.81 Z"/></g><g transform="translate(482.66668701171875 140) rotate(0 0 0.3333282470703125)" stroke="none"><path fill="#000000" d="M 1.08,-0.33 Q 1.08,-0.33 1.10,-0.06 1.11,0.20 1.00,0.45 0.89,0.70 0.68,0.86 0.46,1.03 0.19,1.08 -0.06,1.13 -0.32,1.05 -0.58,0.97 -0.78,0.78 -0.97,0.58 -1.05,0.32 -1.13,0.06 -1.08,-0.19 -1.03,-0.46 -0.86,-0.68 -0.70,-0.89 -0.45,-1.00 -0.20,-1.11 0.06,-1.10 0.33,-1.08 0.57,-0.94 0.80,-0.80 0.94,-0.57 L 1.08,-0.33 Z"/></g><g transform="translate(514.6666870117188 153.33334350585938) rotate(0 -6.3333740234375 18.666656494140625)" stroke="none"><path fill="#000000" d="M 0,0.66 Q 0,0.66 -0.57,0.97 -1.15,1.28 -2.16,1.56 -3.17,1.84 -4.25,2.13 -5.34,2.42 -6.46,2.89 -7.57,3.36 -9.04,4.62 -10.51,5.88 -11.69,7.30 -12.87,8.73 -13.51,10.16 -14.14,11.60 -14.62,12.83 -15.09,14.06 -14.31,13.46 -13.53,12.86 -12.18,12.02 -10.82,11.18 -9.73,10.30 -8.65,9.42 -6.85,8.89 -5.06,8.36 -3.47,8.78 -1.87,9.21 -0.38,10.28 1.11,11.34 2.23,13.11 3.36,14.89 4.22,17.65 5.07,20.41 5.06,23.09 5.04,25.77 4.41,28.17 3.79,30.57 2.46,32.53 1.12,34.49 -0.83,35.83 -2.79,37.17 -5.47,37.18 -8.15,37.18 -10.15,36.22 -12.15,35.26 -13.62,33.21 -15.09,31.16 -15.15,31.07 -15.22,30.99 -15.25,30.88 -15.28,30.78 -15.28,30.68 -15.27,30.57 -15.24,30.47 -15.20,30.37 -15.13,30.29 -15.07,30.21 -14.98,30.15 -14.89,30.09 -14.79,30.06 -14.68,30.04 -14.58,30.05 -14.47,30.06 -14.37,30.10 -14.28,30.14 -14.20,30.21 -14.12,30.28 -14.06,30.37 -14.01,30.47 -13.99,30.57 -13.97,30.67 -13.99,30.78 -14.00,30.89 -14.05,30.98 -14.09,31.08 -14.17,31.15 -14.24,31.23 -14.34,31.27 -14.44,31.32 -14.54,31.34 -14.65,31.35 -14.75,31.33 -14.85,31.31 -14.95,31.26 -15.04,31.21 -15.11,31.13 -15.18,31.05 -15.22,30.95 -15.27,30.85 -15.27,30.75 -15.28,30.64 -15.26,30.54 -15.23,30.43 -15.17,30.34 -15.12,30.26 -15.03,30.19 -14.95,30.12 -14.85,30.09 -14.75,30.05 -14.65,30.05 -14.54,30.04 -14.44,30.07 -14.34,30.10 -14.25,30.17 -14.16,30.23 -14.16,30.23 -14.16,30.23 -12.46,31.35 -10.76,32.46 -9.32,33.13 -7.89,33.79 -6.08,34.00 -4.28,34.22 -2.91,33.35 -1.54,32.48 -0.45,31.06 0.64,29.63 1.21,27.65 1.78,25.68 1.87,23.49 1.96,21.30 1.26,18.91 0.57,16.52 -0.15,15.20 -0.87,13.87 -1.92,13.06 -2.96,12.24 -3.75,11.85 -4.54,11.46 -5.63,11.72 -6.72,11.98 -7.92,12.95 -9.12,13.92 -10.43,14.73 -11.74,15.55 -12.97,16.25 -14.20,16.96 -15.27,16.84 -16.33,16.73 -17.20,15.19 -18.07,13.64 -17.54,11.97 -17.00,10.29 -16.16,8.50 -15.32,6.72 -13.93,5.07 -12.53,3.42 -10.66,1.95 -8.78,0.49 -7.44,-0.03 -6.09,-0.56 -5.00,-0.82 -3.91,-1.08 -2.53,-1.18 -1.15,-1.28 -0.57,-0.97 0,-0.66 0.07,-0.65 0.15,-0.64 0.23,-0.61 0.30,-0.58 0.37,-0.54 0.44,-0.49 0.49,-0.43 0.54,-0.37 0.58,-0.30 0.62,-0.23 0.64,-0.15 0.65,-0.08 0.65,0.00 0.65,0.08 0.64,0.15 0.62,0.23 0.58,0.30 0.54,0.37 0.49,0.43 0.44,0.49 0.37,0.54 0.30,0.58 0.23,0.61 0.15,0.64 0.07,0.65 -0.00,0.66 -0.00,0.66 L 0,0.66 Z"/></g><g transform="translate(532.6666870117188 148) rotate(0 7.33331298828125 8)" stroke="none"><path fill="#000000" d="M 1.04,0 Q 1.04,0 1.19,0.95 1.33,1.91 1.36,3.28 1.38,4.64 1.22,7.20 1.05,9.75 0.78,11.63 0.51,13.51 0.22,14.48 -0.06,15.45 -0.11,15.62 -0.16,15.80 -0.24,15.96 -0.33,16.11 -0.46,16.24 -0.58,16.38 -0.73,16.47 -0.88,16.57 -1.05,16.63 -1.22,16.69 -1.40,16.71 -1.58,16.73 -1.76,16.70 -1.94,16.67 -2.10,16.60 -2.27,16.53 -2.42,16.43 -2.56,16.32 -2.68,16.18 -2.79,16.05 -2.87,15.88 -2.95,15.72 -2.99,15.55 -3.03,15.37 -3.02,15.19 -3.02,15.01 -2.73,14.07 -2.44,13.12 -1.95,11.86 -1.46,10.59 -0.42,8.97 0.61,7.34 2.04,5.67 3.47,4.00 5.71,2.25 7.95,0.50 10.10,-0.09 12.24,-0.68 13.80,0.16 15.36,1.01 16.28,2.82 17.20,4.63 16.99,7.17 16.78,9.71 15.07,11.94 13.36,14.16 13.34,14.24 13.32,14.32 13.28,14.38 13.24,14.45 13.19,14.51 13.14,14.57 13.07,14.62 13.00,14.66 12.93,14.69 12.85,14.71 12.78,14.72 12.70,14.73 12.62,14.72 12.54,14.71 12.47,14.68 12.39,14.65 12.33,14.60 12.26,14.56 12.21,14.50 12.16,14.44 12.13,14.37 12.09,14.30 12.07,14.22 12.05,14.14 12.06,14.06 12.06,13.98 12.06,14.10 12.07,14.21 12.06,14.10 12.06,14.00 12.08,13.90 12.11,13.79 12.17,13.71 12.23,13.62 12.32,13.55 12.40,13.49 12.50,13.46 12.61,13.42 12.71,13.42 12.82,13.43 12.92,13.46 13.02,13.49 13.10,13.56 13.19,13.62 13.25,13.71 13.31,13.80 13.33,13.90 13.36,14.01 13.35,14.11 13.35,14.22 13.31,14.32 13.27,14.41 13.20,14.50 13.13,14.58 13.04,14.63 12.95,14.68 12.84,14.71 12.74,14.73 12.63,14.72 12.53,14.70 12.43,14.66 12.34,14.61 12.26,14.54 12.18,14.47 12.13,14.37 12.08,14.28 12.07,14.17 12.05,14.07 12.07,13.96 12.09,13.86 12.14,13.77 12.19,13.67 12.26,13.60 12.34,13.53 12.44,13.48 12.54,13.44 12.64,13.43 12.75,13.42 12.85,13.44 12.95,13.46 13.05,13.52 13.14,13.57 13.20,13.66 13.27,13.74 13.32,13.95 13.36,14.16 13.34,14.24 13.32,14.32 13.28,14.38 13.24,14.45 13.19,14.51 13.14,14.57 13.07,14.62 13.00,14.66 12.93,14.69 12.86,14.71 12.78,14.72 12.70,14.73 12.62,14.72 12.54,14.71 12.47,14.68 12.39,14.65 12.33,14.60 12.26,14.56 12.21,14.50 12.16,14.44 12.13,14.37 12.09,14.30 12.07,14.22 12.05,14.14 12.06,14.06 12.06,13.98 12.74,11.61 13.42,9.24 13.80,7.46 14.18,5.69 13.79,4.57 13.40,3.45 12.78,2.81 12.15,2.17 10.97,2.58 9.78,2.99 7.79,4.50 5.80,6.02 4.49,7.53 3.18,9.03 2.29,10.37 1.39,11.71 0.93,12.91 0.46,14.11 0.20,14.78 -0.06,15.45 -0.11,15.62 -0.16,15.80 -0.24,15.96 -0.33,16.11 -0.46,16.24 -0.58,16.38 -0.73,16.47 -0.88,16.57 -1.05,16.63 -1.22,16.69 -1.40,16.71 -1.58,16.73 -1.76,16.70 -1.94,16.67 -2.10,16.60 -2.27,16.53 -2.42,16.43 -2.56,16.32 -2.68,16.18 -2.79,16.05 -2.87,15.88 -2.95,15.72 -2.99,15.55 -3.03,15.37 -3.02,15.19 -3.02,15.01 -2.70,14.04 -2.37,13.07 -2.10,11.30 -1.82,9.53 -1.60,7.08 -1.38,4.64 -1.36,3.28 -1.33,1.91 -1.19,0.95 -1.04,0 -1.03,-0.12 -1.01,-0.25 -0.97,-0.36 -0.92,-0.48 -0.85,-0.59 -0.78,-0.69 -0.69,-0.77 -0.59,-0.86 -0.48,-0.92 -0.37,-0.98 -0.24,-1.01 -0.12,-1.04 0.00,-1.04 0.12,-1.04 0.24,-1.01 0.37,-0.98 0.48,-0.92 0.59,-0.86 0.69,-0.77 0.78,-0.69 0.85,-0.59 0.92,-0.48 0.97,-0.36 1.01,-0.25 1.03,-0.12 1.04,0.00 1.04,0.00 L 1.04,0 Z"/></g><g transform="translate(569.3333129882812 144.66665649414062) rotate(0 3.66668701171875 8.666671752929688)" stroke="none"><path fill="#000000" d="M 0,1.00 Q 0,1.00 -1.14,1.17 -2.29,1.35 -3.42,1.61 -4.55,1.87 -5.60,2.45 -6.65,3.03 -7.33,4.06 -8.01,5.09 -8.48,6.57 -8.96,8.04 -9.16,9.72 -9.37,11.41 -8.97,12.78 -8.57,14.14 -8.05,14.49 -7.53,14.84 -6.66,14.50 -5.78,14.17 -4.78,13.08 -3.78,11.99 -2.55,10.24 -1.32,8.48 -0.22,6.41 0.87,4.34 1.72,3.64 2.58,2.94 2.69,2.77 2.81,2.61 2.96,2.48 3.11,2.35 3.29,2.26 3.47,2.16 3.66,2.12 3.86,2.07 4.06,2.07 4.26,2.07 4.45,2.12 4.64,2.17 4.82,2.27 5.00,2.36 5.15,2.50 5.30,2.63 5.41,2.80 5.52,2.96 5.59,3.15 5.66,3.34 5.68,3.54 5.70,3.74 5.68,3.93 5.65,4.13 5.58,4.32 5.51,4.51 6.58,6.45 7.66,8.39 8.74,10.24 9.82,12.09 10.86,13.12 11.90,14.16 13.19,14.31 14.47,14.46 16.10,14.65 17.73,14.83 17.84,14.83 17.95,14.83 18.05,14.86 18.15,14.89 18.23,14.95 18.32,15.02 18.38,15.10 18.44,15.19 18.47,15.29 18.50,15.39 18.50,15.50 18.50,15.61 18.46,15.71 18.42,15.80 18.35,15.89 18.29,15.97 18.20,16.03 18.11,16.08 18.00,16.11 17.90,16.13 17.79,16.12 17.69,16.11 17.59,16.07 17.49,16.03 17.41,15.96 17.34,15.88 17.28,15.79 17.23,15.70 17.21,15.59 17.19,15.49 17.21,15.38 17.23,15.28 17.27,15.18 17.32,15.09 17.40,15.02 17.47,14.94 17.57,14.89 17.66,14.85 17.77,14.83 17.87,14.82 17.98,14.84 18.08,14.86 18.17,14.92 18.27,14.97 18.34,15.05 18.41,15.13 18.45,15.23 18.49,15.32 18.50,15.43 18.51,15.54 18.48,15.64 18.45,15.74 18.39,15.83 18.34,15.92 18.25,15.99 18.17,16.05 18.07,16.09 17.97,16.12 17.97,16.12 17.97,16.12 15.92,16.98 13.88,17.84 11.80,17.31 9.72,16.77 8.26,15.29 6.80,13.80 5.60,11.52 4.39,9.24 4.08,7.77 3.77,6.30 3.17,4.62 2.58,2.94 2.69,2.78 2.81,2.61 2.96,2.48 3.11,2.35 3.29,2.26 3.47,2.16 3.66,2.12 3.86,2.07 4.06,2.07 4.26,2.07 4.45,2.12 4.64,2.17 4.82,2.27 5.00,2.36 5.15,2.50 5.29,2.63 5.41,2.80 5.52,2.96 5.59,3.15 5.66,3.34 5.68,3.54 5.70,3.74 5.68,3.93 5.65,4.13 5.58,4.32 5.51,4.51 4.62,5.24 3.73,5.98 2.55,8.19 1.36,10.40 -0.08,12.39 -1.53,14.39 -3.22,15.82 -4.92,17.25 -6.79,17.44 -8.65,17.62 -10.06,16.48 -11.47,15.34 -12.01,13.21 -12.54,11.08 -12.25,9.04 -11.96,7.00 -11.25,5.12 -10.54,3.24 -9.35,1.80 -8.16,0.35 -6.61,-0.37 -5.06,-1.10 -3.68,-1.23 -2.30,-1.35 -1.15,-1.17 0,-1.00 0.11,-0.98 0.23,-0.97 0.35,-0.92 0.46,-0.88 0.56,-0.81 0.66,-0.74 0.74,-0.65 0.82,-0.56 0.88,-0.46 0.93,-0.35 0.96,-0.23 0.99,-0.12 0.99,0.00 0.99,0.12 0.96,0.23 0.93,0.35 0.88,0.46 0.82,0.56 0.74,0.65 0.66,0.74 0.56,0.81 0.46,0.88 0.35,0.92 0.23,0.97 0.11,0.98 -0.00,1.00 -0.00,1.00 L 0,1.00 Z"/></g><g transform="translate(614 120.66665649414062) rotate(0 -3 20.666671752929688)" stroke="none"><path fill="#000000" d="M 1.01,0.36 Q 1.01,0.36 0.28,3.12 -0.43,5.89 -1.40,8.75 -2.37,11.61 -3.56,14.94 -4.74,18.28 -6.18,22.93 -7.62,27.57 -8.21,30.79 -8.79,34.02 -8.62,35.71 -8.46,37.40 -7.54,37.74 -6.61,38.08 -5.16,37.74 -3.71,37.41 -1.80,36.43 0.10,35.46 2.10,34.46 4.11,33.46 4.20,33.41 4.29,33.36 4.40,33.34 4.50,33.32 4.61,33.33 4.71,33.35 4.81,33.40 4.90,33.44 4.98,33.52 5.05,33.59 5.10,33.69 5.14,33.79 5.16,33.89 5.17,34.00 5.15,34.10 5.13,34.20 5.08,34.30 5.02,34.39 4.95,34.46 4.87,34.53 4.77,34.57 4.67,34.61 4.56,34.62 4.46,34.63 4.36,34.60 4.25,34.58 4.16,34.52 4.07,34.46 4.01,34.38 3.94,34.30 3.91,34.20 3.87,34.10 3.87,33.99 3.86,33.88 3.90,33.78 3.93,33.68 3.99,33.59 4.05,33.51 4.14,33.45 4.23,33.39 4.33,33.35 4.43,33.32 4.54,33.33 4.64,33.33 4.74,33.37 4.84,33.41 4.92,33.47 5.01,33.54 5.06,33.63 5.12,33.72 5.14,33.82 5.17,33.93 5.16,34.03 5.15,34.14 5.11,34.23 5.07,34.33 5.00,34.41 4.92,34.49 4.92,34.49 4.92,34.49 3.24,36.42 1.56,38.36 -0.81,39.53 -3.19,40.69 -5.51,40.88 -7.83,41.07 -9.48,39.94 -11.12,38.81 -11.58,36.14 -12.03,33.47 -11.37,30.04 -10.71,26.61 -9.23,21.91 -7.75,17.21 -6.56,13.89 -5.38,10.58 -4.39,7.71 -3.39,4.83 -2.20,2.23 -1.01,-0.36 -0.95,-0.47 -0.89,-0.59 -0.81,-0.69 -0.72,-0.79 -0.62,-0.86 -0.51,-0.94 -0.39,-0.99 -0.27,-1.04 -0.14,-1.05 -0.02,-1.07 0.10,-1.06 0.23,-1.05 0.35,-1.00 0.48,-0.96 0.59,-0.89 0.69,-0.81 0.78,-0.72 0.87,-0.62 0.93,-0.51 0.99,-0.40 1.03,-0.27 1.06,-0.15 1.06,-0.02 1.07,0.10 1.04,0.23 1.01,0.36 1.01,0.36 L 1.01,0.36 Z"/></g><g transform="translate(622.6666870117188 144.66665649414062) rotate(0 9 5.333343505859375)" stroke="none"><path fill="#000000" d="M 0.97,-0.41 Q 0.97,-0.41 1.60,0.71 2.22,1.84 3.52,2.11 4.81,2.38 6.75,2.38 8.70,2.38 10.47,1.50 12.24,0.62 13.12,-0.20 14.00,-1.04 13.36,-1.50 12.72,-1.95 11.33,-1.32 9.93,-0.69 8.65,0.39 7.36,1.47 6.53,3.08 5.70,4.69 5.55,6.31 5.40,7.93 5.94,9.45 6.47,10.96 7.41,11.42 8.34,11.87 10.03,11.25 11.71,10.62 14.18,9.94 16.65,9.26 16.75,9.23 16.85,9.20 16.96,9.20 17.07,9.21 17.17,9.24 17.27,9.28 17.35,9.35 17.43,9.41 17.49,9.50 17.54,9.59 17.57,9.69 17.60,9.80 17.59,9.90 17.58,10.01 17.54,10.11 17.49,10.20 17.42,10.28 17.35,10.36 17.26,10.41 17.17,10.47 17.06,10.49 16.96,10.51 16.85,10.49 16.75,10.48 16.65,10.43 16.56,10.38 16.48,10.31 16.41,10.23 16.36,10.14 16.31,10.04 16.30,9.94 16.29,9.83 16.31,9.73 16.33,9.62 16.38,9.53 16.43,9.44 16.51,9.37 16.59,9.30 16.69,9.25 16.78,9.21 16.89,9.20 17.00,9.20 17.10,9.22 17.20,9.25 17.29,9.30 17.38,9.36 17.45,9.44 17.51,9.53 17.55,9.63 17.59,9.73 17.59,9.83 17.59,9.94 17.56,10.04 17.53,10.14 17.47,10.23 17.41,10.31 17.32,10.38 17.23,10.44 17.23,10.44 17.23,10.44 14.92,12.13 12.62,13.81 10.02,14.39 7.42,14.97 5.49,13.75 3.56,12.52 2.78,10.09 2.00,7.65 2.34,5.38 2.69,3.12 3.93,1.00 5.18,-1.10 6.97,-2.48 8.76,-3.85 11.00,-4.49 13.25,-5.13 14.80,-4.54 16.35,-3.94 16.87,-2.67 17.39,-1.40 16.76,-0.07 16.14,1.25 14.85,2.36 13.57,3.47 11.17,4.46 8.76,5.46 6.29,5.36 3.83,5.26 1.95,4.38 0.07,3.51 -0.45,1.96 -0.97,0.41 -1.00,0.29 -1.04,0.17 -1.04,0.04 -1.05,-0.08 -1.02,-0.20 -1.00,-0.33 -0.94,-0.44 -0.89,-0.56 -0.81,-0.66 -0.73,-0.76 -0.63,-0.83 -0.53,-0.91 -0.41,-0.96 -0.29,-1.01 -0.17,-1.03 -0.04,-1.05 0.08,-1.04 0.20,-1.03 0.33,-0.99 0.45,-0.95 0.55,-0.88 0.66,-0.81 0.75,-0.72 0.84,-0.63 0.90,-0.52 0.97,-0.41 0.97,-0.41 L 0.97,-0.41 Z"/></g><g transform="translate(662.6666870117188 120) rotate(0 -1.66668701171875 14.666671752929688)" stroke="none"><path fill="#000000" d="M 1.01,0.30 Q 1.01,0.30 0.65,2.28 0.30,4.26 -0.49,7.36 -1.29,10.45 -2.03,12.95 -2.76,15.44 -3.45,17.83 -4.14,20.22 -4.39,22.64 -4.63,25.05 -4.44,25.97 -4.25,26.90 -3.38,26.76 -2.50,26.63 -0.02,25.55 2.46,24.46 2.56,24.42 2.65,24.37 2.76,24.36 2.86,24.35 2.97,24.37 3.07,24.39 3.16,24.45 3.25,24.50 3.32,24.58 3.39,24.66 3.43,24.76 3.47,24.86 3.48,24.96 3.49,25.07 3.46,25.17 3.43,25.28 3.37,25.36 3.31,25.45 3.23,25.52 3.14,25.58 3.04,25.62 2.94,25.65 2.84,25.65 2.73,25.65 2.63,25.62 2.53,25.59 2.44,25.52 2.36,25.46 2.30,25.37 2.24,25.28 2.21,25.18 2.18,25.08 2.18,24.97 2.19,24.87 2.23,24.77 2.27,24.67 2.33,24.59 2.40,24.51 2.49,24.45 2.58,24.40 2.69,24.37 2.79,24.35 2.90,24.36 3.00,24.37 3.10,24.41 3.20,24.46 3.27,24.53 3.35,24.60 3.40,24.70 3.45,24.79 3.47,24.89 3.49,25.00 3.47,25.10 3.46,25.21 3.41,25.30 3.36,25.40 3.28,25.47 3.20,25.54 3.20,25.54 3.20,25.54 0.62,27.68 -1.95,29.81 -3.45,29.86 -4.96,29.90 -6.06,28.95 -7.17,27.99 -7.49,26.36 -7.82,24.73 -7.48,22.05 -7.13,19.36 -6.43,16.96 -5.73,14.57 -5.00,12.12 -4.28,9.67 -3.44,6.53 -2.60,3.39 -1.80,1.54 -1.01,-0.30 -0.96,-0.42 -0.90,-0.53 -0.83,-0.63 -0.75,-0.73 -0.65,-0.81 -0.55,-0.89 -0.44,-0.95 -0.32,-1.00 -0.19,-1.02 -0.07,-1.05 0.05,-1.04 0.17,-1.04 0.30,-1.00 0.42,-0.96 0.53,-0.90 0.64,-0.83 0.73,-0.74 0.82,-0.66 0.89,-0.55 0.95,-0.44 0.99,-0.32 1.03,-0.20 1.04,-0.07 1.05,0.05 1.03,0.17 1.01,0.30 1.01,0.30 L 1.01,0.30 Z"/></g><g transform="translate(654.6666870117188 128.66665649414062) rotate(0 10 2.3333358764648438)" stroke="none"><path fill="#000000" d="M 0,-1.02 Q 0,-1.02 1.15,-1.15 2.31,-1.27 4.35,-0.74 6.39,-0.21 9.12,0.78 11.86,1.77 15.20,2.76 18.54,3.74 18.64,3.78 18.75,3.81 18.83,3.88 18.91,3.94 18.97,4.03 19.03,4.12 19.06,4.22 19.09,4.33 19.08,4.43 19.07,4.54 19.03,4.64 18.99,4.74 18.92,4.82 18.85,4.90 18.76,4.95 18.67,5.00 18.57,5.03 18.46,5.05 18.36,5.04 18.25,5.02 18.16,4.98 18.06,4.93 17.98,4.86 17.91,4.78 17.86,4.69 17.81,4.60 17.79,4.49 17.78,4.39 17.79,4.28 17.81,4.18 17.86,4.08 17.91,3.99 17.99,3.92 18.07,3.84 18.17,3.80 18.26,3.76 18.37,3.75 18.47,3.74 18.58,3.76 18.68,3.78 18.77,3.84 18.86,3.89 18.93,3.98 19.00,4.06 19.04,4.16 19.08,4.26 19.08,4.36 19.08,4.47 19.06,4.57 19.03,4.67 18.97,4.76 18.91,4.85 18.82,4.91 18.74,4.97 18.63,5.01 18.53,5.04 18.43,5.04 18.32,5.04 18.32,5.04 18.32,5.04 14.57,4.80 10.83,4.56 8.18,3.54 5.53,2.51 3.90,1.89 2.28,1.27 1.14,1.15 0,1.02 -0.12,1.01 -0.24,0.99 -0.36,0.95 -0.47,0.91 -0.58,0.84 -0.68,0.77 -0.76,0.67 -0.84,0.58 -0.90,0.47 -0.96,0.36 -0.99,0.24 -1.02,0.12 -1.02,-0.00 -1.02,-0.12 -0.99,-0.24 -0.96,-0.36 -0.90,-0.47 -0.84,-0.58 -0.76,-0.67 -0.68,-0.77 -0.58,-0.84 -0.47,-0.91 -0.36,-0.95 -0.24,-0.99 -0.12,-1.01 0.00,-1.02 0.00,-1.02 L 0,-1.02 Z"/></g></svg>